<svg xmlns="http://www.w3.org/2000/svg" width="1220" height="210" viewBox="0 0 1220 210">
<rect width="100%" height="100%" fill="#fbfaf7"/>
<text x="30" y="36" font-family="Arial" font-size="22" font-weight="700" fill="#1f2d36">mix.wav</text>
<text x="30" y="60" font-family="Arial" font-size="13" fill="#53636d">sr=44100 Hz, channels=1, duration=603.00s, displayed first 30.0s, RMS=0.0386</text>
<line x1="36" x2="1184" y1="124" y2="124" stroke="#d8d1c7" stroke-width="1"/>
<polyline points="36.0,118.9 37.1,118.9 38.3,120.6 39.4,113.8 40.6,140.2 41.7,136.7 42.9,118.2 44.0,121.0 45.2,142.0 46.3,107.2 47.5,93.5 48.6,107.0 49.8,113.3 50.9,115.0 52.1,111.6 53.2,121.4 54.4,130.8 55.5,123.2 56.7,122.3 57.8,118.0 59.0,119.4 60.1,116.6 61.3,118.5 62.4,123.8 63.6,120.0 64.7,118.2 65.9,115.8 67.0,104.0 68.2,110.9 69.3,128.3 70.5,128.4 71.6,114.9 72.8,124.2 73.9,121.7 75.1,111.1 76.2,123.1 77.4,119.1 78.5,120.3 79.7,123.0 80.8,117.1 82.0,128.1 83.1,110.3 84.3,119.3 85.4,120.5 86.6,120.8 87.7,121.4 88.9,113.8 90.0,121.6 91.2,121.7 92.3,120.0 93.5,117.8 94.6,113.4 95.8,120.0 96.9,117.5 98.1,119.5 99.2,123.8 100.4,120.6 101.5,123.7 102.7,119.4 103.8,123.1 104.9,119.2 106.1,118.1 107.2,116.0 108.4,118.5 109.5,118.7 110.7,119.0 111.8,118.9 113.0,119.4 114.1,117.2 115.3,114.9 116.4,110.6 117.6,123.5 118.7,103.8 119.9,111.8 121.0,116.9 122.2,102.0 123.3,119.6 124.5,113.3 125.6,125.2 126.8,125.2 127.9,121.0 129.1,117.1 130.2,114.9 131.4,114.5 132.5,112.2 133.7,112.8 134.8,108.9 136.0,138.5 137.1,93.7 138.3,144.5 139.4,121.3 140.6,120.0 141.7,156.7 142.9,117.0 144.0,114.6 145.2,115.8 146.3,111.2 147.5,145.2 148.6,113.1 149.8,123.5 150.9,105.6 152.1,125.7 153.2,115.3 154.4,108.3 155.5,116.0 156.7,129.5 157.8,119.8 159.0,119.7 160.1,133.6 161.3,94.0 162.4,114.4 163.6,121.7 164.7,122.3 165.9,117.8 167.0,117.1 168.2,124.6 169.3,116.3 170.5,102.3 171.6,135.2 172.7,113.6 173.9,119.8 175.0,124.2 176.2,111.5 177.3,120.5 178.5,120.1 179.6,105.2 180.8,119.0 181.9,133.0 183.1,120.0 184.2,124.0 185.4,117.4 186.5,117.9 187.7,116.2 188.8,108.1 190.0,124.2 191.1,119.2 192.3,116.2 193.4,117.6 194.6,119.9 195.7,113.7 196.9,113.7 198.0,114.6 199.2,106.7 200.3,108.9 201.5,117.6 202.6,99.8 203.8,121.9 204.9,109.8 206.1,116.0 207.2,123.8 208.4,117.2 209.5,125.9 210.7,121.4 211.8,116.9 213.0,125.3 214.1,115.4 215.3,106.1 216.4,126.2 217.6,126.4 218.7,122.6 219.9,124.5 221.0,108.2 222.2,141.2 223.3,114.1 224.5,112.2 225.6,110.1 226.8,108.9 227.9,122.9 229.1,121.7 230.2,117.1 231.4,111.7 232.5,115.9 233.7,117.8 234.8,130.1 236.0,104.9 237.1,123.2 238.3,125.5 239.4,121.6 240.5,105.2 241.7,137.2 242.8,116.3 244.0,115.5 245.1,126.5 246.3,112.5 247.4,116.5 248.6,118.5 249.7,125.9 250.9,112.7 252.0,118.6 253.2,124.0 254.3,117.4 255.5,119.5 256.6,119.3 257.8,118.9 258.9,118.3 260.1,118.1 261.2,114.3 262.4,111.9 263.5,89.9 264.7,106.0 265.8,117.3 267.0,130.9 268.1,128.8 269.3,131.2 270.4,120.3 271.6,123.5 272.7,129.3 273.9,108.7 275.0,117.0 276.2,123.0 277.3,119.0 278.5,122.3 279.6,116.3 280.8,118.7 281.9,118.8 283.1,118.9 284.2,119.3 285.4,112.7 286.5,113.7 287.7,115.4 288.8,120.2 290.0,116.4 291.1,125.2 292.3,123.6 293.4,116.6 294.6,121.1 295.7,116.9 296.9,123.5 298.0,111.3 299.2,103.8 300.3,104.5 301.5,106.7 302.6,121.6 303.8,118.4 304.9,119.5 306.1,105.6 307.2,124.7 308.3,111.2 309.5,128.0 310.6,109.6 311.8,126.1 312.9,106.7 314.1,127.3 315.2,120.9 316.4,119.5 317.5,118.9 318.7,118.9 319.8,118.9 321.0,118.9 322.1,118.9 323.3,118.8 324.4,118.7 325.6,118.9 326.7,119.0 327.9,116.9 329.0,91.2 330.2,102.0 331.3,130.4 332.5,155.3 333.6,170.0 334.8,117.4 335.9,140.7 337.1,128.1 338.2,108.2 339.4,121.5 340.5,129.6 341.7,130.5 342.8,114.7 344.0,134.3 345.1,119.1 346.3,123.6 347.4,114.1 348.6,107.8 349.7,116.0 350.9,98.1 352.0,119.5 353.2,141.6 354.3,115.8 355.5,109.4 356.6,120.6 357.8,119.9 358.9,119.1 360.1,118.7 361.2,122.4 362.4,120.1 363.5,128.1 364.7,117.2 365.8,123.8 367.0,120.1 368.1,105.9 369.3,100.5 370.4,123.5 371.6,116.7 372.7,112.1 373.8,116.8 375.0,113.1 376.1,135.0 377.3,132.4 378.4,90.1 379.6,139.6 380.7,118.4 381.9,119.4 383.0,117.7 384.2,118.9 385.3,118.1 386.5,117.3 387.6,122.9 388.8,118.1 389.9,117.5 391.1,122.4 392.2,101.5 393.4,116.5 394.5,136.2 395.7,129.4 396.8,130.4 398.0,125.4 399.1,119.8 400.3,125.8 401.4,110.0 402.6,105.7 403.7,114.6 404.9,123.0 406.0,126.5 407.2,116.8 408.3,115.1 409.5,118.7 410.6,118.8 411.8,119.1 412.9,122.6 414.1,118.3 415.2,144.0 416.4,126.4 417.5,117.4 418.7,120.2 419.8,117.4 421.0,119.6 422.1,118.4 423.3,131.8 424.4,128.9 425.6,118.2 426.7,118.8 427.9,120.4 429.0,121.1 430.2,113.9 431.3,96.4 432.5,123.8 433.6,103.9 434.8,134.6 435.9,119.9 437.1,113.1 438.2,92.5 439.4,121.7 440.5,109.4 441.6,119.1 442.8,114.6 443.9,132.3 445.1,115.6 446.2,110.3 447.4,112.2 448.5,112.9 449.7,113.1 450.8,131.3 452.0,126.8 453.1,118.8 454.3,119.9 455.4,119.5 456.6,119.0 457.7,111.4 458.9,112.6 460.0,151.5 461.2,119.1 462.3,113.0 463.5,136.9 464.6,136.3 465.8,118.0 466.9,104.8 468.1,115.6 469.2,118.4 470.4,115.7 471.5,116.5 472.7,124.2 473.8,129.8 475.0,125.6 476.1,121.1 477.3,119.8 478.4,119.0 479.6,122.0 480.7,145.3 481.9,96.1 483.0,135.1 484.2,108.6 485.3,103.4 486.5,112.9 487.6,117.6 488.8,119.9 489.9,101.8 491.1,99.5 492.2,135.6 493.4,106.3 494.5,118.5 495.7,117.2 496.8,112.1 498.0,127.2 499.1,116.4 500.3,112.2 501.4,116.2 502.6,119.8 503.7,118.9 504.9,119.3 506.0,120.4 507.2,118.7 508.3,118.7 509.4,108.2 510.6,116.7 511.7,131.0 512.9,114.3 514.0,124.9 515.2,108.9 516.3,121.3 517.5,112.1 518.6,116.1 519.8,127.6 520.9,121.9 522.1,126.9 523.2,122.5 524.4,112.9 525.5,119.8 526.7,125.1 527.8,113.2 529.0,123.2 530.1,117.4 531.3,118.7 532.4,118.4 533.6,115.1 534.7,124.1 535.9,124.1 537.0,126.4 538.2,120.3 539.3,116.1 540.5,123.7 541.6,115.9 542.8,124.5 543.9,126.0 545.1,124.2 546.2,113.2 547.4,122.7 548.5,126.2 549.7,126.4 550.8,118.2 552.0,117.7 553.1,121.7 554.3,118.9 555.4,117.8 556.6,118.8 557.7,123.3 558.9,121.1 560.0,118.3 561.2,118.1 562.3,108.7 563.5,139.6 564.6,123.8 565.8,117.8 566.9,111.9 568.1,115.2 569.2,101.0 570.4,109.8 571.5,120.1 572.7,119.4 573.8,120.3 575.0,91.5 576.1,129.0 577.2,107.5 578.4,119.1 579.5,150.1 580.7,108.9 581.8,116.1 583.0,130.2 584.1,118.7 585.3,117.2 586.4,131.4 587.6,130.8 588.7,113.3 589.9,115.4 591.0,122.1 592.2,100.2 593.3,114.7 594.5,118.7 595.6,117.8 596.8,128.9 597.9,124.6 599.1,125.4 600.2,131.3 601.4,114.1 602.5,110.8 603.7,101.0 604.8,116.2 606.0,122.6 607.1,117.5 608.3,117.6 609.4,122.9 610.6,120.6 611.7,123.1 612.9,113.9 614.0,131.1 615.2,121.6 616.3,119.2 617.5,118.9 618.6,112.6 619.8,129.3 620.9,132.1 622.1,120.0 623.2,117.6 624.4,116.0 625.5,128.2 626.7,118.9 627.8,123.3 629.0,118.5 630.1,119.8 631.3,118.2 632.4,119.8 633.6,120.9 634.7,116.1 635.9,119.5 637.0,115.4 638.2,114.6 639.3,124.0 640.5,118.8 641.6,119.0 642.8,117.9 643.9,119.6 645.0,123.1 646.2,102.4 647.3,125.8 648.5,119.0 649.6,118.1 650.8,119.5 651.9,118.0 653.1,116.4 654.2,113.0 655.4,119.1 656.5,129.9 657.7,99.0 658.8,131.8 660.0,119.8 661.1,120.3 662.3,116.3 663.4,118.7 664.6,120.5 665.7,135.4 666.9,116.7 668.0,108.8 669.2,120.8 670.3,118.8 671.5,116.5 672.6,121.1 673.8,118.7 674.9,119.9 676.1,118.9 677.2,118.9 678.4,118.9 679.5,118.9 680.7,118.9 681.8,117.3 683.0,121.6 684.1,122.3 685.3,146.9 686.4,102.9 687.6,118.7 688.7,119.7 689.9,120.0 691.0,92.4 692.2,140.0 693.3,131.3 694.5,103.8 695.6,146.3 696.8,124.9 697.9,126.8 699.1,121.1 700.2,124.2 701.4,108.4 702.5,120.8 703.7,122.0 704.8,98.5 706.0,100.5 707.1,116.7 708.3,122.4 709.4,123.6 710.6,92.9 711.7,144.3 712.8,123.1 714.0,92.5 715.1,78.0 716.3,115.9 717.4,120.4 718.6,122.6 719.7,123.8 720.9,117.7 722.0,120.1 723.2,115.2 724.3,115.8 725.5,119.8 726.6,119.0 727.8,120.2 728.9,127.3 730.1,118.4 731.2,127.2 732.4,108.8 733.5,100.2 734.7,123.5 735.8,121.8 737.0,115.2 738.1,116.7 739.3,119.1 740.4,116.4 741.6,112.6 742.7,115.6 743.9,115.7 745.0,120.7 746.2,118.6 747.3,117.9 748.5,115.9 749.6,125.3 750.8,118.1 751.9,119.2 753.1,121.7 754.2,117.9 755.4,119.2 756.5,122.1 757.7,131.8 758.8,128.1 760.0,124.5 761.1,127.9 762.3,120.9 763.4,116.8 764.6,112.0 765.7,124.8 766.9,120.3 768.0,117.1 769.2,118.2 770.3,119.6 771.5,120.3 772.6,121.8 773.8,120.2 774.9,119.4 776.1,119.3 777.2,118.8 778.4,118.9 779.5,120.6 780.6,118.9 781.8,93.0 782.9,106.7 784.1,96.4 785.2,128.4 786.4,121.1 787.5,98.8 788.7,146.7 789.8,116.2 791.0,118.7 792.1,121.6 793.3,123.9 794.4,116.3 795.6,120.4 796.7,114.8 797.9,117.2 799.0,125.3 800.2,91.7 801.3,145.2 802.5,111.0 803.6,137.7 804.8,146.6 805.9,118.7 807.1,115.2 808.2,114.7 809.4,121.2 810.5,101.3 811.7,110.0 812.8,114.1 814.0,133.5 815.1,105.2 816.3,120.2 817.4,91.8 818.6,125.3 819.7,125.7 820.9,116.4 822.0,119.8 823.2,118.9 824.3,119.0 825.5,110.1 826.6,107.7 827.8,138.6 828.9,123.5 830.1,139.6 831.2,120.2 832.4,126.6 833.5,106.0 834.7,120.4 835.8,117.2 837.0,115.7 838.1,115.1 839.3,116.8 840.4,119.7 841.6,119.0 842.7,106.9 843.9,116.7 845.0,118.5 846.2,119.8 847.3,115.9 848.4,118.5 849.6,115.2 850.7,121.4 851.9,118.6 853.0,109.0 854.2,124.0 855.3,119.4 856.5,118.9 857.6,118.4 858.8,117.6 859.9,124.0 861.1,124.2 862.2,94.0 863.4,116.1 864.5,107.0 865.7,125.5 866.8,126.5 868.0,124.3 869.1,119.3 870.3,109.7 871.4,126.8 872.6,126.9 873.7,117.5 874.9,125.0 876.0,111.6 877.2,114.4 878.3,126.5 879.5,111.6 880.6,104.8 881.8,118.8 882.9,117.1 884.1,110.3 885.2,129.8 886.4,115.9 887.5,118.1 888.7,135.0 889.8,134.0 891.0,119.3 892.1,119.2 893.3,112.2 894.4,124.4 895.6,117.5 896.7,112.9 897.9,114.0 899.0,111.0 900.2,114.9 901.3,117.3 902.5,113.2 903.6,120.2 904.8,113.7 905.9,118.6 907.1,136.2 908.2,121.9 909.4,125.9 910.5,121.6 911.7,108.4 912.8,134.0 913.9,118.9 915.1,102.2 916.2,113.4 917.4,120.2 918.5,118.8 919.7,119.2 920.8,119.0 922.0,128.5 923.1,117.2 924.3,130.7 925.4,121.6 926.6,118.9 927.7,116.3 928.9,121.5 930.0,112.2 931.2,102.7 932.3,105.2 933.5,136.8 934.6,118.8 935.8,108.9 936.9,107.3 938.1,124.4 939.2,128.1 940.4,124.8 941.5,119.2 942.7,124.6 943.8,129.4 945.0,123.2 946.1,131.9 947.3,111.7 948.4,127.5 949.6,123.8 950.7,119.3 951.9,129.1 953.0,137.1 954.2,120.0 955.3,122.2 956.5,114.8 957.6,117.3 958.8,117.2 959.9,113.6 961.1,145.8 962.2,137.4 963.4,119.2 964.5,123.6 965.7,123.9 966.8,130.9 968.0,120.0 969.1,133.7 970.3,131.1 971.4,115.5 972.6,119.0 973.7,120.1 974.9,115.2 976.0,127.6 977.2,141.0 978.3,118.6 979.5,130.5 980.6,148.9 981.7,140.9 982.9,129.3 984.0,124.5 985.2,112.2 986.3,109.6 987.5,129.6 988.6,129.4 989.8,117.9 990.9,119.7 992.1,117.5 993.2,118.5 994.4,111.3 995.5,126.3 996.7,119.3 997.8,123.2 999.0,113.1 1000.1,117.7 1001.3,120.9 1002.4,121.6 1003.6,118.1 1004.7,125.7 1005.9,120.4 1007.0,113.4 1008.2,112.2 1009.3,127.5 1010.5,113.6 1011.6,122.6 1012.8,115.8 1013.9,117.6 1015.1,118.7 1016.2,119.2 1017.4,118.9 1018.5,119.1 1019.7,119.2 1020.8,117.7 1022.0,112.2 1023.1,119.1 1024.3,150.9 1025.4,114.1 1026.6,116.7 1027.7,97.6 1028.9,101.6 1030.0,108.0 1031.2,81.8 1032.3,121.2 1033.5,120.6 1034.6,127.1 1035.8,102.8 1036.9,97.2 1038.1,127.1 1039.2,119.9 1040.4,120.3 1041.5,121.3 1042.7,112.0 1043.8,109.5 1045.0,122.1 1046.1,106.8 1047.3,110.3 1048.4,117.9 1049.5,119.2 1050.7,112.6 1051.8,117.2 1053.0,114.4 1054.1,121.0 1055.3,121.7 1056.4,122.7 1057.6,112.9 1058.7,92.5 1059.9,112.1 1061.0,117.7 1062.2,118.1 1063.3,119.4 1064.5,119.2 1065.6,121.7 1066.8,122.9 1067.9,128.5 1069.1,104.1 1070.2,111.1 1071.4,120.2 1072.5,129.0 1073.7,111.7 1074.8,119.7 1076.0,111.4 1077.1,129.9 1078.3,125.4 1079.4,125.0 1080.6,104.6 1081.7,128.1 1082.9,96.8 1084.0,119.0 1085.2,121.7 1086.3,117.3 1087.5,119.2 1088.6,118.4 1089.8,104.9 1090.9,110.5 1092.1,121.3 1093.2,116.2 1094.4,109.6 1095.5,126.5 1096.7,119.7 1097.8,117.9 1099.0,119.7 1100.1,117.9 1101.3,122.9 1102.4,116.3 1103.6,118.1 1104.7,118.0 1105.9,126.7 1107.0,116.1 1108.2,124.1 1109.3,119.5 1110.5,121.6 1111.6,117.3 1112.8,129.1 1113.9,123.1 1115.1,116.4 1116.2,118.8 1117.3,117.0 1118.5,122.1 1119.6,117.2 1120.8,113.0 1121.9,121.0 1123.1,112.2 1124.2,124.1 1125.4,119.0 1126.5,119.5 1127.7,82.0 1128.8,117.7 1130.0,97.6 1131.1,137.5 1132.3,127.9 1133.4,119.5 1134.6,120.2 1135.7,124.2 1136.9,121.6 1138.0,111.8 1139.2,108.1 1140.3,113.0 1141.5,111.4 1142.6,112.5 1143.8,119.1 1144.9,117.7 1146.1,115.8 1147.2,130.5 1148.4,117.4 1149.5,126.5 1150.7,99.2 1151.8,114.1 1153.0,112.3 1154.1,121.5 1155.3,118.8 1156.4,128.8 1157.6,115.1 1158.7,122.8 1159.9,116.4 1161.0,115.3 1162.2,128.2 1163.3,123.4 1164.5,119.3 1165.6,125.7 1166.8,127.2 1167.9,123.5 1169.1,118.4 1170.2,124.2 1171.4,124.4 1172.5,117.0 1173.7,120.0 1174.8,121.0 1176.0,120.2 1177.1,117.8 1178.3,111.0 1179.4,115.1 1180.6,119.2 1181.7,128.1 1182.9,115.3 1184.0,117.1" fill="none" stroke="#7a4e9d" stroke-width="1.2"/>
</svg>