<svg xmlns="http://www.w3.org/2000/svg" width="1220" height="320" viewBox="0 0 1220 320">
<rect width="100%" height="100%" fill="#fbfaf7"/>
<text x="30" y="36" font-family="Arial" font-size="22" font-weight="700" fill="#1f2d36">mix_acoustic.csv</text>
<text x="30" y="60" font-family="Arial" font-size="13" fill="#53636d">First 4000 rows with f0/intensity values.</text>
<text x="30" y="98" font-family="Arial" font-size="13" fill="#21313a">F0</text>
<polyline points="96.0,160.0 97.1,160.0 98.2,160.0 99.3,160.0 100.4,160.0 101.4,119.0 102.5,78.0 103.6,79.3 104.7,80.7 105.8,81.3 106.9,81.9 108.0,82.1 109.1,82.4 110.2,82.3 111.2,82.1 112.3,82.1 113.4,82.1 114.5,82.1 115.6,82.1 116.7,82.1 117.8,82.1 118.9,82.1 120.0,82.1 121.0,82.3 122.1,82.4 123.2,82.5 124.3,82.6 125.4,82.7 126.5,82.7 127.6,82.7 128.7,82.8 129.8,82.8 130.9,82.9 131.9,83.2 133.0,83.5 134.1,84.0 135.2,84.4 136.3,84.7 137.4,85.0 138.5,85.2 139.6,85.5 140.7,86.3 141.7,87.2 142.8,88.4 143.9,89.6 145.0,90.9 146.1,92.2 147.2,94.5 148.3,96.8 149.4,99.0 150.5,101.2 151.5,103.4 152.6,105.6 153.7,107.7 154.8,109.9 155.9,111.9 157.0,113.9 158.1,114.7 159.2,115.6 160.3,116.8 161.3,118.0 162.4,119.0 163.5,119.9 164.6,120.8 165.7,121.6 166.8,121.8 167.9,122.1 169.0,122.2 170.1,122.4 171.1,122.8 172.2,123.2 173.3,123.6 174.4,123.9 175.5,124.2 176.6,124.4 177.7,125.0 178.8,125.6 179.9,125.9 180.9,126.2 182.0,126.7 183.1,127.2 184.2,127.5 185.3,127.8 186.4,128.7 187.5,129.7 188.6,129.7 189.7,129.6 190.8,129.9 191.8,130.3 192.9,130.6 194.0,130.9 195.1,131.4 196.2,132.0 197.3,132.0 198.4,131.9 199.5,132.0 200.6,132.1 201.6,145.9 202.7,159.9 203.8,160.0 204.9,160.0 206.0,140.7 207.1,121.2 208.2,121.0 209.3,121.1 210.4,120.9 211.4,120.8 212.5,119.9 213.6,119.0 214.7,118.4 215.8,117.7 216.9,116.7 218.0,115.8 219.1,114.7 220.2,113.7 221.2,113.1 222.3,112.5 223.4,112.5 224.5,112.6 225.6,112.8 226.7,113.1 227.8,113.2 228.9,113.3 230.0,136.4 231.0,159.7 232.1,160.0 233.2,160.0 234.3,160.0 235.4,160.0 236.5,160.0 237.6,160.0 238.7,160.0 239.8,160.0 240.8,140.6 241.9,121.0 243.0,120.6 244.1,120.6 245.2,121.2 246.3,121.9 247.4,122.1 248.5,122.3 249.6,122.9 250.7,123.5 251.7,124.2 252.8,125.0 253.9,142.2 255.0,159.7 256.1,160.0 257.2,160.0 258.3,160.0 259.4,160.0 260.5,160.0 261.5,160.0 262.6,160.0 263.7,160.0 264.8,134.2 265.9,107.9 267.0,107.8 268.1,108.1 269.2,107.9 270.3,107.8 271.3,107.2 272.4,106.6 273.5,105.4 274.6,104.2 275.7,103.3 276.8,102.4 277.9,102.0 279.0,101.6 280.1,101.3 281.1,101.1 282.2,100.4 283.3,99.7 284.4,99.3 285.5,98.9 286.6,98.1 287.7,97.2 288.8,96.8 289.9,96.4 290.9,96.6 292.0,96.8 293.1,97.5 294.2,98.2 295.3,98.8 296.4,99.3 297.5,100.2 298.6,101.0 299.7,102.6 300.7,104.2 301.8,104.6 302.9,105.1 304.0,106.8 305.1,108.6 306.2,110.9 307.3,113.2 308.4,115.1 309.5,117.1 310.6,118.7 311.6,120.2 312.7,120.8 313.8,121.3 314.9,121.8 316.0,122.3 317.1,123.2 318.2,124.1 319.3,124.6 320.4,125.1 321.4,124.9 322.5,124.7 323.6,123.9 324.7,123.2 325.8,122.7 326.9,122.2 328.0,121.6 329.1,120.9 330.2,120.1 331.2,119.4 332.3,118.3 333.4,117.3 334.5,117.2 335.6,117.1 336.7,116.7 337.8,116.3 338.9,115.1 340.0,113.9 341.0,112.1 342.1,110.3 343.2,108.7 344.3,107.2 345.4,106.0 346.5,104.9 347.6,104.3 348.7,103.7 349.8,103.5 350.8,103.2 351.9,103.1 353.0,103.0 354.1,103.1 355.2,103.3 356.3,103.3 357.4,103.2 358.5,103.5 359.6,103.8 360.6,104.2 361.7,104.6 362.8,104.8 363.9,104.9 365.0,105.1 366.1,105.3 367.2,105.6 368.3,105.8 369.4,105.9 370.5,106.0 371.5,106.5 372.6,106.9 373.7,132.7 374.8,159.3 375.9,146.0 377.0,131.7 378.1,131.4 379.2,131.5 380.3,131.9 381.3,132.3 382.4,132.5 383.5,132.7 384.6,132.9 385.7,133.1 386.8,133.7 387.9,134.3 389.0,134.6 390.1,134.8 391.1,134.8 392.2,134.8 393.3,135.2 394.4,135.7 395.5,135.9 396.6,136.1 397.7,136.4 398.8,136.6 399.9,148.0 400.9,159.7 402.0,160.0 403.1,160.0 404.2,127.0 405.3,92.9 406.4,92.9 407.5,94.0 408.6,94.7 409.7,95.3 410.7,95.9 411.8,96.6 412.9,97.3 414.0,98.1 415.1,98.7 416.2,99.3 417.3,100.9 418.4,102.6 419.5,102.7 420.5,102.7 421.6,103.3 422.7,103.9 423.8,118.4 424.9,133.4 426.0,134.0 427.1,134.1 428.2,134.0 429.3,133.9 430.4,133.9 431.4,133.9 432.5,133.9 433.6,134.0 434.7,133.8 435.8,133.7 436.9,133.3 438.0,133.0 439.1,146.0 440.2,159.5 441.2,160.0 442.3,160.0 443.4,142.2 444.5,123.8 445.6,123.7 446.7,124.2 447.8,124.5 448.9,124.8 450.0,125.1 451.0,125.5 452.1,125.6 453.2,125.7 454.3,125.7 455.4,125.6 456.5,124.8 457.6,123.9 458.7,120.5 459.8,117.0 460.8,116.9 461.9,116.9 463.0,137.7 464.1,159.2 465.2,160.0 466.3,160.0 467.4,160.0 468.5,160.0 469.6,160.0 470.6,160.0 471.7,160.0 472.8,160.0 473.9,160.0 475.0,160.0 476.1,160.0 477.2,160.0 478.3,160.0 479.4,160.0 480.4,160.0 481.5,160.0 482.6,160.0 483.7,160.0 484.8,160.0 485.9,160.0 487.0,144.9 488.1,129.2 489.2,128.5 490.3,128.5 491.3,128.7 492.4,128.8 493.5,129.2 494.6,129.5 495.7,129.4 496.8,129.3 497.9,129.5 499.0,129.7 500.1,129.7 501.1,129.7 502.2,129.9 503.3,130.0 504.4,130.0 505.5,130.0 506.6,144.4 507.7,159.4 508.8,160.0 509.9,160.0 510.9,160.0 512.0,160.0 513.1,160.0 514.2,160.0 515.3,160.0 516.4,160.0 517.5,160.0 518.6,160.0 519.7,160.0 520.7,160.0 521.8,160.0 522.9,160.0 524.0,160.0 525.1,160.0 526.2,160.0 527.3,160.0 528.4,160.0 529.5,160.0 530.5,160.0 531.6,160.0 532.7,160.0 533.8,160.0 534.9,160.0 536.0,160.0 537.1,160.0 538.2,160.0 539.3,144.5 540.3,128.2 541.4,127.9 542.5,128.4 543.6,128.5 544.7,128.6 545.8,128.4 546.9,128.1 548.0,127.9 549.1,127.7 550.2,127.5 551.2,127.3 552.3,126.9 553.4,126.6 554.5,126.1 555.6,125.7 556.7,125.2 557.8,124.7 558.9,124.5 560.0,124.3 561.0,123.7 562.1,123.1 563.2,122.1 564.3,121.0 565.4,120.1 566.5,119.3 567.6,118.5 568.7,117.8 569.8,116.8 570.8,115.7 571.9,115.5 573.0,115.3 574.1,115.2 575.2,115.0 576.3,115.3 577.4,115.5 578.5,116.1 579.6,116.7 580.6,117.2 581.7,117.6 582.8,118.2 583.9,118.8 585.0,120.6 586.1,122.5 587.2,123.4 588.3,124.3 589.4,126.0 590.4,127.7 591.5,129.0 592.6,130.3 593.7,130.7 594.8,131.0 595.9,131.8 597.0,132.7 598.1,133.5 599.2,134.2 600.2,134.9 601.3,135.6 602.4,135.9 603.5,136.2 604.6,136.6 605.7,136.9 606.8,137.1 607.9,137.3 609.0,137.5 610.1,137.6 611.1,137.7 612.2,137.8 613.3,138.0 614.4,138.3 615.5,138.4 616.6,138.5 617.7,138.5 618.8,138.6 619.9,138.6 620.9,138.7 622.0,138.6 623.1,138.5 624.2,138.5 625.3,138.5 626.4,138.5 627.5,138.6 628.6,138.6 629.7,138.6 630.7,138.5 631.8,138.4 632.9,138.4 634.0,138.5 635.1,148.7 636.2,159.4 637.3,122.2 638.4,82.3 639.5,80.4 640.5,80.7 641.6,81.0 642.7,81.4 643.8,81.8 644.9,82.2 646.0,82.8 647.1,83.3 648.2,83.7 649.3,84.1 650.3,84.4 651.4,84.7 652.5,84.9 653.6,85.2 654.7,85.4 655.8,85.7 656.9,85.7 658.0,85.8 659.1,85.9 660.1,86.1 661.2,86.4 662.3,86.8 663.4,87.1 664.5,87.3 665.6,87.6 666.7,87.9 667.8,88.1 668.9,88.3 669.9,88.7 671.0,89.2 672.1,89.6 673.2,90.0 674.3,90.5 675.4,91.0 676.5,107.0 677.6,123.9 678.7,124.8 679.8,124.7 680.8,124.7 681.9,124.6 683.0,124.5 684.1,124.5 685.2,124.5 686.3,124.5 687.4,130.1 688.5,136.1 689.6,136.4 690.6,136.5 691.7,136.7 692.8,136.9 693.9,137.3 695.0,137.6 696.1,137.7 697.2,137.9 698.3,137.6 699.4,137.2 700.4,137.2 701.5,137.3 702.6,137.3 703.7,137.4 704.8,137.5 705.9,137.6 707.0,137.7 708.1,137.9 709.2,138.2 710.2,138.5 711.3,139.0 712.4,139.4 713.5,149.1 714.6,159.4 715.7,131.3 716.8,100.8 717.9,100.3 719.0,101.9 720.0,105.6 721.1,109.5 722.2,111.9 723.3,114.2 724.4,115.4 725.5,116.4 726.6,116.7 727.7,117.0 728.8,118.5 729.8,120.1 730.9,120.8 732.0,121.5 733.1,122.7 734.2,123.9 735.3,124.5 736.4,125.0 737.5,125.3 738.6,125.5 739.7,125.6 740.7,125.8 741.8,126.1 742.9,126.3 744.0,126.6 745.1,126.9 746.2,127.2 747.3,127.5 748.4,127.7 749.5,127.9 750.5,127.8 751.6,127.7 752.7,127.7 753.8,127.6 754.9,127.6 756.0,127.6 757.1,127.5 758.2,127.5 759.3,127.5 760.3,127.5 761.4,127.1 762.5,126.7 763.6,126.2 764.7,125.7 765.8,125.6 766.9,125.6 768.0,125.8 769.1,126.1 770.1,126.4 771.2,126.6 772.3,126.6 773.4,126.7 774.5,126.7 775.6,126.8 776.7,126.7 777.8,126.5 778.9,126.4 779.9,126.2 781.0,126.1 782.1,125.9 783.2,126.0 784.3,126.2 785.4,125.7 786.5,125.1 787.6,124.7 788.7,124.4 789.7,124.1 790.8,123.7 791.9,123.7 793.0,123.7 794.1,123.9 795.2,124.2 796.3,140.9 797.4,158.8 798.5,160.0 799.6,160.0 800.6,147.3 801.7,133.7 802.8,132.8 803.9,132.8 805.0,131.6 806.1,130.4 807.2,130.3 808.3,130.3 809.4,130.4 810.4,130.5 811.5,130.5 812.6,130.5 813.7,130.9 814.8,131.2 815.9,144.6 817.0,159.0 818.1,160.0 819.2,160.0 820.2,160.0 821.3,160.0 822.4,160.0 823.5,160.0 824.6,160.0 825.7,160.0 826.8,160.0 827.9,160.0 829.0,160.0 830.0,160.0 831.1,160.0 832.2,160.0 833.3,160.0 834.4,160.0 835.5,160.0 836.6,160.0 837.7,160.0 838.8,160.0 839.8,143.8 840.9,126.3 842.0,125.2 843.1,125.4 844.2,125.6 845.3,125.7 846.4,126.0 847.5,126.3 848.6,124.2 849.6,121.9 850.7,122.4 851.8,123.1 852.9,123.4 854.0,123.7 855.1,124.2 856.2,124.6 857.3,125.3 858.4,125.9 859.5,126.0 860.5,126.0 861.6,141.8 862.7,158.7 863.8,160.0 864.9,160.0 866.0,160.0 867.1,160.0 868.2,146.5 869.3,132.0 870.3,131.1 871.4,131.4 872.5,132.8 873.6,134.3 874.7,134.6 875.8,134.7 876.9,134.9 878.0,135.0 879.1,132.4 880.1,129.6 881.2,128.5 882.3,127.6 883.4,127.2 884.5,126.9 885.6,126.9 886.7,126.9 887.8,127.0 888.9,127.0 889.9,127.4 891.0,127.7 892.1,127.8 893.2,127.9 894.3,127.9 895.4,127.9 896.5,127.7 897.6,127.4 898.7,127.4 899.7,127.4 900.8,127.2 901.9,127.0 903.0,126.9 904.1,126.8 905.2,126.6 906.3,126.5 907.4,126.2 908.5,125.9 909.5,125.3 910.6,124.7 911.7,123.8 912.8,123.0 913.9,121.6 915.0,120.3 916.1,119.2 917.2,118.2 918.3,117.5 919.4,116.8 920.4,116.0 921.5,115.2 922.6,114.1 923.7,113.0 924.8,112.5 925.9,112.1 927.0,134.1 928.1,158.1 929.2,160.0 930.2,160.0 931.3,160.0 932.4,160.0 933.5,160.0 934.6,160.0 935.7,160.0 936.8,160.0 937.9,160.0 939.0,160.0 940.0,160.0 941.1,160.0 942.2,160.0 943.3,160.0 944.4,160.0 945.5,160.0 946.6,160.0 947.7,160.0 948.8,160.0 949.8,160.0 950.9,160.0 952.0,160.0 953.1,160.0 954.2,160.0 955.3,143.1 956.4,124.7 957.5,124.2 958.6,125.3 959.6,125.9 960.7,126.5 961.8,126.9 962.9,127.3 964.0,127.4 965.1,127.4 966.2,127.5 967.3,127.5 968.4,127.5 969.4,127.4 970.5,127.2 971.6,126.9 972.7,126.9 973.8,127.0 974.9,142.1 976.0,158.6 977.1,160.0 978.2,160.0 979.3,151.4 980.3,142.0 981.4,141.2 982.5,141.2 983.6,149.8 984.7,159.2 985.8,160.0 986.9,160.0 988.0,160.0 989.1,160.0 990.1,160.0 991.2,160.0 992.3,160.0 993.4,160.0 994.5,160.0 995.6,160.0 996.7,160.0 997.8,160.0 998.9,132.6 999.9,102.6 1001.0,99.8 1002.1,99.6 1003.2,99.4 1004.3,99.2 1005.4,99.1 1006.5,99.2 1007.6,99.1 1008.7,99.0 1009.7,98.9 1010.8,98.9 1011.9,98.8 1013.0,98.7 1014.1,98.6 1015.2,98.4 1016.3,98.2 1017.4,97.9 1018.5,97.9 1019.5,97.8 1020.6,97.7 1021.7,97.5 1022.8,97.3 1023.9,97.2 1025.0,97.2 1026.1,97.3 1027.2,97.0 1028.3,96.7 1029.3,104.2 1030.4,112.5 1031.5,113.6 1032.6,114.0 1033.7,114.2 1034.8,114.5 1035.9,114.8 1037.0,115.1 1038.1,115.2 1039.2,115.3 1040.2,115.4 1041.3,115.4 1042.4,115.4 1043.5,115.4 1044.6,115.3 1045.7,115.2 1046.8,115.3 1047.9,115.3 1049.0,115.8 1050.0,116.4 1051.1,117.0 1052.2,117.7 1053.3,117.4 1054.4,117.0 1055.5,116.2 1056.6,115.5 1057.7,116.2 1058.8,117.1 1059.8,117.4 1060.9,117.6 1062.0,117.6 1063.1,117.6 1064.2,117.8 1065.3,118.0 1066.4,118.2 1067.5,118.5 1068.6,118.7 1069.6,118.9 1070.7,118.8 1071.8,118.7 1072.9,118.6 1074.0,118.6 1075.1,137.3 1076.2,158.0 1077.3,160.0 1078.4,160.0 1079.4,160.0 1080.5,160.0 1081.6,160.0 1082.7,160.0 1083.8,160.0 1084.9,160.0 1086.0,160.0 1087.1,160.0 1088.2,149.6 1089.2,138.1 1090.3,137.4 1091.4,137.8 1092.5,138.1 1093.6,138.3 1094.7,138.5 1095.8,138.6 1096.9,138.7 1098.0,138.7 1099.1,138.8 1100.1,138.8 1101.2,139.0 1102.3,139.1 1103.4,139.2 1104.5,139.3 1105.6,139.3 1106.7,139.4 1107.8,140.3 1108.9,141.3 1109.9,141.5 1111.0,141.7 1112.1,141.9 1113.2,142.1 1114.3,135.1 1115.4,127.3 1116.5,126.6 1117.6,126.8 1118.7,127.3 1119.7,127.8 1120.8,128.2 1121.9,128.6 1123.0,128.9 1124.1,129.1 1125.2,129.5 1126.3,130.0 1127.4,130.1 1128.5,130.2 1129.5,130.1 1130.6,130.0 1131.7,129.8 1132.8,129.5 1133.9,129.1 1135.0,128.8 1136.1,128.4 1137.2,128.0 1138.3,127.6 1139.3,127.1 1140.4,126.9 1141.5,126.6 1142.6,126.8 1143.7,127.0 1144.8,127.2 1145.9,127.5 1147.0,126.6 1148.1,125.5 1149.1,125.1 1150.2,124.6 1151.3,124.5 1152.4,124.3 1153.5,124.3 1154.6,124.3 1155.7,124.5 1156.8,124.7 1157.9,125.2 1159.0,125.6 1160.0,126.1 1161.1,126.5 1162.2,126.9 1163.3,127.3 1164.4,127.6 1165.5,128.0 1166.6,128.3 1167.7,128.6 1168.8,129.0 1169.8,129.3 1170.9,129.5 1172.0,129.6 1173.1,129.9 1174.2,130.3 1175.3,143.6 1176.4,158.4 1177.5,138.1 1178.6,113.7 1179.6,111.6 1180.7,112.2 1181.8,112.8 1182.9,113.3 1184.0,113.6" fill="none" stroke="#2f6f8f" stroke-width="1.3"/>
<text x="30" y="216" font-family="Arial" font-size="13" fill="#21313a">Intensity</text>
<polyline points="96.0,278.0 97.1,264.2 98.2,250.4 99.3,240.9 100.4,231.4 101.4,225.6 102.5,219.7 103.6,216.4 104.7,213.1 105.8,211.5 106.9,209.8 108.0,209.3 109.1,208.7 110.2,208.7 111.2,208.6 112.3,208.7 113.4,208.8 114.5,208.8 115.6,208.7 116.7,208.5 117.8,208.3 118.9,208.0 120.0,207.7 121.0,207.3 122.1,206.9 123.2,206.0 124.3,205.0 125.4,203.9 126.5,202.8 127.6,202.2 128.7,201.6 129.8,201.3 130.9,201.0 131.9,200.8 133.0,200.6 134.1,200.4 135.2,200.2 136.3,199.9 137.4,199.7 138.5,199.4 139.6,199.2 140.7,198.9 141.7,198.7 142.8,198.6 143.9,198.4 145.0,198.4 146.1,198.3 147.2,198.3 148.3,198.4 149.4,198.4 150.5,198.5 151.5,198.7 152.6,198.8 153.7,199.1 154.8,199.5 155.9,199.9 157.0,200.3 158.1,200.6 159.2,200.9 160.3,201.2 161.3,201.5 162.4,202.0 163.5,202.6 164.6,203.7 165.7,204.9 166.8,205.8 167.9,206.8 169.0,207.2 170.1,207.5 171.1,208.0 172.2,208.5 173.3,209.4 174.4,210.3 175.5,211.4 176.6,212.5 177.7,213.6 178.8,214.6 179.9,215.5 180.9,216.3 182.0,216.8 183.1,217.3 184.2,217.1 185.3,217.0 186.4,216.4 187.5,215.7 188.6,215.0 189.7,214.3 190.8,213.9 191.8,213.6 192.9,213.3 194.0,213.1 195.1,212.7 196.2,212.4 197.3,212.2 198.4,212.0 199.5,212.2 200.6,212.5 201.6,212.9 202.7,213.4 203.8,213.9 204.9,214.5 206.0,215.1 207.1,215.8 208.2,216.6 209.3,217.4 210.4,218.0 211.4,218.6 212.5,219.2 213.6,219.8 214.7,220.4 215.8,220.9 216.9,221.4 218.0,221.9 219.1,222.3 220.2,222.8 221.2,222.8 222.3,222.8 223.4,222.4 224.5,222.0 225.6,221.8 226.7,221.5 227.8,221.5 228.9,221.4 230.0,220.9 231.0,220.4 232.1,219.9 233.2,219.4 234.3,219.1 235.4,218.9 236.5,218.7 237.6,218.5 238.7,218.1 239.8,217.8 240.8,217.3 241.9,216.8 243.0,216.2 244.1,215.6 245.2,215.2 246.3,214.9 247.4,214.9 248.5,214.9 249.6,215.3 250.7,215.7 251.7,216.6 252.8,217.5 253.9,219.3 255.0,221.2 256.1,224.4 257.2,227.7 258.3,232.4 259.4,237.1 260.5,243.1 261.5,249.2 262.6,255.9 263.7,262.6 264.8,264.8 265.9,266.8 267.0,265.4 268.1,263.9 269.2,259.3 270.3,254.6 271.3,249.8 272.4,244.9 273.5,241.6 274.6,238.4 275.7,235.9 276.8,233.4 277.9,231.0 279.0,228.7 280.1,226.7 281.1,224.6 282.2,223.1 283.3,221.6 284.4,220.7 285.5,219.8 286.6,219.8 287.7,219.8 288.8,220.7 289.9,221.5 290.9,222.9 292.0,224.3 293.1,225.9 294.2,227.4 295.3,228.6 296.4,229.8 297.5,230.7 298.6,231.5 299.7,232.7 300.7,233.9 301.8,232.2 302.9,230.5 304.0,227.2 305.1,223.9 306.2,221.9 307.3,220.0 308.4,219.3 309.5,218.7 310.6,218.3 311.6,218.0 312.7,217.4 313.8,216.7 314.9,216.2 316.0,215.6 317.1,215.3 318.2,214.9 319.3,214.2 320.4,213.5 321.4,213.3 322.5,213.1 323.6,213.4 324.7,213.7 325.8,213.7 326.9,213.7 328.0,213.5 329.1,213.3 330.2,213.6 331.2,213.9 332.3,214.3 333.4,214.7 334.5,214.5 335.6,214.3 336.7,214.5 337.8,214.8 338.9,215.5 340.0,216.3 341.0,216.7 342.1,217.1 343.2,217.3 344.3,217.6 345.4,217.5 346.5,217.4 347.6,216.7 348.7,216.0 349.8,215.8 350.8,215.6 351.9,216.3 353.0,216.9 354.1,217.3 355.2,217.6 356.3,217.6 357.4,217.6 358.5,217.9 359.6,218.3 360.6,218.8 361.7,219.2 362.8,219.2 363.9,219.2 365.0,219.2 366.1,219.1 367.2,219.2 368.3,219.3 369.4,219.4 370.5,219.5 371.5,219.5 372.6,219.5 373.7,219.8 374.8,220.2 375.9,220.6 377.0,221.1 378.1,221.5 379.2,221.9 380.3,222.2 381.3,222.4 382.4,222.8 383.5,223.1 384.6,223.4 385.7,223.6 386.8,223.6 387.9,223.5 389.0,223.6 390.1,223.7 391.1,224.0 392.2,224.4 393.3,224.6 394.4,224.8 395.5,224.5 396.6,224.3 397.7,223.5 398.8,222.7 399.9,222.1 400.9,221.4 402.0,220.9 403.1,220.3 404.2,219.7 405.3,219.1 406.4,218.8 407.5,218.6 408.6,218.5 409.7,218.4 410.7,218.2 411.8,218.1 412.9,218.0 414.0,218.0 415.1,218.2 416.2,218.4 417.3,218.4 418.4,218.5 419.5,218.5 420.5,218.5 421.6,218.8 422.7,219.1 423.8,219.4 424.9,219.7 426.0,219.9 427.1,220.0 428.2,220.2 429.3,220.4 430.4,220.7 431.4,221.1 432.5,221.9 433.6,222.7 434.7,224.1 435.8,225.5 436.9,227.5 438.0,229.4 439.1,230.4 440.2,231.4 441.2,230.1 442.3,228.7 443.4,227.3 444.5,226.0 445.6,225.4 446.7,224.8 447.8,224.7 448.9,224.5 450.0,224.3 451.0,224.1 452.1,224.2 453.2,224.2 454.3,224.7 455.4,225.1 456.5,225.6 457.6,226.1 458.7,226.5 459.8,226.9 460.8,227.3 461.9,227.7 463.0,228.3 464.1,228.8 465.2,229.9 466.3,230.9 467.4,232.5 468.5,234.1 469.6,236.4 470.6,238.6 471.7,241.9 472.8,245.1 473.9,247.5 475.0,249.9 476.1,244.1 477.2,237.9 478.3,232.6 479.4,227.2 480.4,224.8 481.5,222.4 482.6,221.7 483.7,221.1 484.8,220.7 485.9,220.4 487.0,219.7 488.1,219.1 489.2,218.8 490.3,218.5 491.3,218.7 492.4,218.9 493.5,218.6 494.6,218.2 495.7,217.9 496.8,217.6 497.9,218.1 499.0,218.7 500.1,219.6 501.1,220.6 502.2,221.4 503.3,222.2 504.4,222.7 505.5,223.2 506.6,224.1 507.7,225.1 508.8,227.0 509.9,228.9 510.9,230.8 512.0,232.6 513.1,233.4 514.2,234.1 515.3,234.6 516.4,235.1 517.5,235.7 518.6,236.2 519.7,235.9 520.7,235.5 521.8,234.0 522.9,232.5 524.0,230.8 525.1,229.1 526.2,227.8 527.3,226.6 528.4,226.1 529.5,225.7 530.5,225.7 531.6,225.8 532.7,225.6 533.8,225.4 534.9,225.8 536.0,226.1 537.1,227.4 538.2,228.8 539.3,230.4 540.3,232.0 541.4,233.6 542.5,235.1 543.6,235.5 544.7,235.8 545.8,235.3 546.9,234.9 548.0,234.4 549.1,233.9 550.2,233.2 551.2,232.5 552.3,231.7 553.4,230.8 554.5,229.9 555.6,229.0 556.7,228.6 557.8,228.2 558.9,228.2 560.0,228.2 561.0,228.0 562.1,227.8 563.2,227.8 564.3,227.8 565.4,228.5 566.5,229.1 567.6,229.5 568.7,229.8 569.8,229.7 570.8,229.7 571.9,230.5 573.0,231.3 574.1,233.6 575.2,235.9 576.3,239.6 577.4,243.4 578.5,244.9 579.6,246.3 580.6,242.6 581.7,238.6 582.8,235.1 583.9,231.7 585.0,229.9 586.1,228.1 587.2,227.4 588.3,226.7 589.4,226.6 590.4,226.6 591.5,227.0 592.6,227.4 593.7,228.3 594.8,229.2 595.9,230.6 597.0,232.0 598.1,233.1 599.2,234.1 600.2,234.8 601.3,235.5 602.4,236.3 603.5,237.0 604.6,238.3 605.7,239.6 606.8,241.8 607.9,244.1 609.0,247.4 610.1,250.7 611.1,253.8 612.2,256.9 613.3,258.3 614.4,259.7 615.5,260.0 616.6,260.3 617.7,260.1 618.8,259.8 619.9,259.6 620.9,259.4 622.0,259.3 623.1,259.3 624.2,259.3 625.3,259.4 626.4,259.5 627.5,259.6 628.6,259.6 629.7,259.6 630.7,259.3 631.8,258.9 632.9,258.5 634.0,258.1 635.1,258.3 636.2,258.4 637.3,258.2 638.4,258.1 639.5,253.8 640.5,249.4 641.6,242.6 642.7,235.6 643.8,230.6 644.9,225.7 646.0,222.8 647.1,220.0 648.2,218.1 649.3,216.3 650.3,214.7 651.4,213.2 652.5,211.6 653.6,209.9 654.7,208.8 655.8,207.7 656.9,207.4 658.0,207.2 659.1,207.1 660.1,207.0 661.2,207.0 662.3,207.1 663.4,207.5 664.5,207.8 665.6,208.0 666.7,208.1 667.8,208.1 668.9,208.0 669.9,207.8 671.0,207.5 672.1,207.6 673.2,207.8 674.3,208.5 675.4,209.2 676.5,209.8 677.6,210.3 678.7,210.5 679.8,210.6 680.8,210.6 681.9,210.6 683.0,210.3 684.1,210.0 685.2,209.9 686.3,209.8 687.4,210.0 688.5,210.3 689.6,210.7 690.6,211.1 691.7,211.5 692.8,211.8 693.9,211.7 695.0,211.6 696.1,211.3 697.2,210.9 698.3,210.5 699.4,210.0 700.4,209.8 701.5,209.6 702.6,209.7 703.7,209.9 704.8,210.0 705.9,210.2 707.0,210.3 708.1,210.4 709.2,210.7 710.2,211.0 711.3,211.1 712.4,211.3 713.5,211.2 714.6,211.1 715.7,211.2 716.8,211.4 717.9,212.1 719.0,212.8 720.0,213.8 721.1,214.8 722.2,215.7 723.3,216.5 724.4,217.0 725.5,217.5 726.6,217.9 727.7,218.3 728.8,218.8 729.8,219.3 730.9,219.8 732.0,220.4 733.1,220.9 734.2,221.5 735.3,221.9 736.4,222.3 737.5,222.7 738.6,223.2 739.7,223.8 740.7,224.5 741.8,225.0 742.9,225.5 744.0,225.8 745.1,226.0 746.2,226.2 747.3,226.4 748.4,226.5 749.5,226.7 750.5,226.8 751.6,226.8 752.7,226.9 753.8,226.9 754.9,227.1 756.0,227.3 757.1,227.4 758.2,227.6 759.3,227.5 760.3,227.5 761.4,227.7 762.5,228.0 763.6,228.3 764.7,228.6 765.8,226.5 766.9,224.2 768.0,219.8 769.1,215.1 770.1,211.9 771.2,208.7 772.3,207.2 773.4,205.7 774.5,205.3 775.6,204.8 776.7,204.9 777.8,204.9 778.9,205.2 779.9,205.6 781.0,206.0 782.1,206.4 783.2,206.6 784.3,206.7 785.4,206.7 786.5,206.7 787.6,206.7 788.7,206.6 789.7,206.5 790.8,206.4 791.9,206.2 793.0,206.1 794.1,206.0 795.2,205.9 796.3,205.8 797.4,205.6 798.5,205.3 799.6,205.0 800.6,204.6 801.7,204.2 802.8,203.8 803.9,203.4 805.0,203.2 806.1,202.9 807.2,202.7 808.3,202.6 809.4,202.4 810.4,202.1 811.5,201.5 812.6,200.8 813.7,200.3 814.8,199.7 815.9,199.6 817.0,199.4 818.1,199.2 819.2,199.0 820.2,198.7 821.3,198.4 822.4,198.3 823.5,198.2 824.6,198.0 825.7,197.9 826.8,197.4 827.9,196.9 829.0,196.6 830.0,196.2 831.1,196.1 832.2,196.0 833.3,196.0 834.4,196.0 835.5,196.3 836.6,196.7 837.7,197.7 838.8,198.8 839.8,200.7 840.9,202.7 842.0,205.5 843.1,208.4 844.2,211.0 845.3,213.6 846.4,214.7 847.5,215.7 848.6,216.1 849.6,216.4 850.7,216.5 851.8,216.7 852.9,217.0 854.0,217.2 855.1,217.7 856.2,218.1 857.3,218.8 858.4,219.5 859.5,220.5 860.5,221.6 861.6,223.4 862.7,225.1 863.8,227.1 864.9,229.2 866.0,227.2 867.1,224.8 868.2,221.0 869.3,217.0 870.3,214.3 871.4,211.6 872.5,209.9 873.6,208.1 874.7,207.1 875.8,206.0 876.9,205.7 878.0,205.4 879.1,206.0 880.1,206.7 881.2,207.6 882.3,208.5 883.4,208.7 884.5,208.9 885.6,208.9 886.7,208.9 887.8,208.9 888.9,208.9 889.9,208.9 891.0,208.9 892.1,209.0 893.2,209.1 894.3,208.9 895.4,208.7 896.5,208.5 897.6,208.3 898.7,208.3 899.7,208.3 900.8,208.6 901.9,208.8 903.0,209.1 904.1,209.3 905.2,209.5 906.3,209.8 907.4,210.3 908.5,210.9 909.5,211.2 910.6,211.5 911.7,211.7 912.8,211.9 913.9,212.0 915.0,212.2 916.1,212.2 917.2,212.1 918.3,212.0 919.4,212.0 920.4,211.9 921.5,211.8 922.6,211.9 923.7,212.0 924.8,211.8 925.9,211.5 927.0,211.2 928.1,211.0 929.2,211.3 930.2,211.6 931.3,212.5 932.4,213.4 933.5,214.5 934.6,215.5 935.7,216.2 936.8,216.9 937.9,217.3 939.0,217.6 940.0,218.0 941.1,218.4 942.2,218.7 943.3,219.0 944.4,218.8 945.5,218.5 946.6,217.7 947.7,216.9 948.8,215.7 949.8,214.5 950.9,213.3 952.0,212.1 953.1,211.2 954.2,210.4 955.3,209.9 956.4,209.4 957.5,209.1 958.6,208.9 959.6,208.6 960.7,208.3 961.8,208.0 962.9,207.7 964.0,207.8 965.1,207.9 966.2,208.6 967.3,209.3 968.4,209.8 969.4,210.2 970.5,210.1 971.6,210.1 972.7,210.2 973.8,210.3 974.9,210.4 976.0,210.6 977.1,210.5 978.2,210.4 979.3,210.7 980.3,211.0 981.4,212.2 982.5,213.5 983.6,215.1 984.7,216.8 985.8,218.3 986.9,219.7 988.0,221.3 989.1,222.8 990.1,224.4 991.2,225.9 992.3,227.1 993.4,228.2 994.5,228.8 995.6,229.4 996.7,229.7 997.8,229.9 998.9,230.1 999.9,230.3 1001.0,230.6 1002.1,230.8 1003.2,230.9 1004.3,230.9 1005.4,230.6 1006.5,230.3 1007.6,230.3 1008.7,230.3 1009.7,230.7 1010.8,231.1 1011.9,231.7 1013.0,232.4 1014.1,233.4 1015.2,234.4 1016.3,235.8 1017.4,237.2 1018.5,238.4 1019.5,239.5 1020.6,236.7 1021.7,233.5 1022.8,229.3 1023.9,225.1 1025.0,222.2 1026.1,219.5 1027.2,217.3 1028.3,215.1 1029.3,213.4 1030.4,211.7 1031.5,210.5 1032.6,209.3 1033.7,208.4 1034.8,207.6 1035.9,206.9 1037.0,206.4 1038.1,206.6 1039.2,206.9 1040.2,207.7 1041.3,208.5 1042.4,208.8 1043.5,209.1 1044.6,209.2 1045.7,209.4 1046.8,210.4 1047.9,211.6 1049.0,213.1 1050.0,214.6 1051.1,215.7 1052.2,216.8 1053.3,217.5 1054.4,218.2 1055.5,218.2 1056.6,218.2 1057.7,218.7 1058.8,219.3 1059.8,220.2 1060.9,221.1 1062.0,221.6 1063.1,222.0 1064.2,222.4 1065.3,222.9 1066.4,223.7 1067.5,224.6 1068.6,224.7 1069.6,224.8 1070.7,224.7 1071.8,224.6 1072.9,225.1 1074.0,225.7 1075.1,225.4 1076.2,224.9 1077.3,223.8 1078.4,222.7 1079.4,222.2 1080.5,221.7 1081.6,221.2 1082.7,220.7 1083.8,220.1 1084.9,219.5 1086.0,219.1 1087.1,218.6 1088.2,218.4 1089.2,218.2 1090.3,218.3 1091.4,218.4 1092.5,218.8 1093.6,219.2 1094.7,219.5 1095.8,219.6 1096.9,220.0 1098.0,220.4 1099.1,220.5 1100.1,220.5 1101.2,220.2 1102.3,219.8 1103.4,219.8 1104.5,219.9 1105.6,219.6 1106.7,219.2 1107.8,218.5 1108.9,217.9 1109.9,217.6 1111.0,217.4 1112.1,217.4 1113.2,217.4 1114.3,217.2 1115.4,216.9 1116.5,216.5 1117.6,216.0 1118.7,215.7 1119.7,215.3 1120.8,215.1 1121.9,214.9 1123.0,214.9 1124.1,214.9 1125.2,215.5 1126.3,216.2 1127.4,218.0 1128.5,219.9 1129.5,222.4 1130.6,224.9 1131.7,225.9 1132.8,226.6 1133.9,226.4 1135.0,226.0 1136.1,225.7 1137.2,225.4 1138.3,225.2 1139.3,225.0 1140.4,224.7 1141.5,224.4 1142.6,224.1 1143.7,223.9 1144.8,223.6 1145.9,223.3 1147.0,223.2 1148.1,223.1 1149.1,223.0 1150.2,223.0 1151.3,222.9 1152.4,222.9 1153.5,222.9 1154.6,223.0 1155.7,223.5 1156.8,223.9 1157.9,225.3 1159.0,226.8 1160.0,229.4 1161.1,232.0 1162.2,232.9 1163.3,233.6 1164.4,230.4 1165.5,226.8 1166.6,224.1 1167.7,221.5 1168.8,220.2 1169.8,219.0 1170.9,218.6 1172.0,218.4 1173.1,218.7 1174.2,219.0 1175.3,219.8 1176.4,220.6 1177.5,221.4 1178.6,222.1 1179.6,222.8 1180.7,223.5 1181.8,224.7 1182.9,226.1 1184.0,228.4" fill="none" stroke="#b05f3c" stroke-width="1.3"/>
</svg>