<svg xmlns="http://www.w3.org/2000/svg" width="1220" height="210" viewBox="0 0 1220 210">
<rect width="100%" height="100%" fill="#fbfaf7"/>
<text x="30" y="36" font-family="Arial" font-size="22" font-weight="700" fill="#1f2d36">single_female.wav</text>
<text x="30" y="60" font-family="Arial" font-size="13" fill="#53636d">sr=44100 Hz, channels=1, duration=603.00s, displayed first 30.0s, RMS=0.0609</text>
<line x1="36" x2="1184" y1="124" y2="124" stroke="#d8d1c7" stroke-width="1"/>
<polyline points="36.0,123.0 37.1,123.0 38.3,124.9 39.4,116.9 40.6,148.3 41.7,144.1 42.9,122.1 44.0,125.5 45.2,150.4 46.3,109.0 47.5,92.8 48.6,108.8 49.8,117.4 50.9,124.5 52.1,121.8 53.2,122.6 54.4,128.1 55.5,119.9 56.7,127.1 57.8,122.4 59.0,123.2 60.1,120.1 61.3,122.9 62.4,122.8 63.6,126.8 64.7,120.9 65.9,118.8 67.0,105.3 68.2,113.7 69.3,134.8 70.5,136.6 71.6,118.2 72.8,128.0 73.9,125.2 75.1,113.2 76.2,127.1 77.4,123.3 78.5,124.6 79.7,127.5 80.8,121.9 82.0,133.1 83.1,112.0 84.3,123.4 85.4,124.0 86.6,123.6 87.7,122.8 88.9,126.7 90.0,123.8 91.2,126.3 92.3,122.4 93.5,124.7 94.6,116.9 95.8,123.3 96.9,122.7 98.1,125.4 99.2,128.3 100.4,125.0 101.5,128.7 102.7,123.5 103.8,127.9 104.9,123.2 106.1,122.0 107.2,119.5 108.4,122.5 109.5,122.7 110.7,123.0 111.8,122.8 113.0,123.1 114.1,121.8 115.3,119.6 116.4,128.3 117.6,127.1 118.7,121.1 119.9,122.8 121.0,122.9 122.2,123.1 123.3,123.0 124.5,123.0 125.6,123.0 126.8,123.0 127.9,123.0 129.1,123.0 130.2,123.0 131.4,122.5 132.5,120.6 133.7,116.3 134.8,111.2 136.0,146.1 137.1,92.7 138.3,151.9 139.4,121.9 140.6,105.7 141.7,162.0 142.9,121.3 144.0,122.9 145.2,123.1 146.3,113.2 147.5,135.4 148.6,109.6 149.8,124.3 150.9,100.3 152.1,137.6 153.2,120.1 154.4,113.2 155.5,119.6 156.7,136.1 157.8,121.7 159.0,122.4 160.1,123.5 161.3,105.2 162.4,127.0 163.6,127.3 164.7,127.7 165.9,122.9 167.0,121.0 168.2,123.2 169.3,132.5 170.5,120.3 171.6,132.6 172.7,122.4 173.9,122.2 175.0,127.2 176.2,113.9 177.3,124.8 178.5,123.4 179.6,110.8 180.8,121.3 181.9,138.0 183.1,122.8 184.2,129.0 185.4,121.0 186.5,121.7 187.7,119.7 188.8,110.1 190.0,129.3 191.1,123.2 192.3,119.7 193.4,121.5 194.6,124.2 195.7,116.8 196.9,115.9 198.0,117.8 199.2,108.5 200.3,110.7 201.5,126.4 202.6,111.2 203.8,113.5 204.9,118.1 206.1,119.8 207.2,118.1 208.4,122.5 209.5,120.0 210.7,124.2 211.8,122.3 213.0,127.4 214.1,110.7 215.3,108.8 216.4,127.1 217.6,129.6 218.7,127.1 219.9,129.5 221.0,108.8 222.2,129.5 223.3,121.4 224.5,117.6 225.6,123.0 226.8,114.0 227.9,128.5 229.1,124.7 230.2,120.1 231.4,114.9 232.5,118.7 233.7,123.0 234.8,124.1 236.0,124.6 237.1,123.4 238.3,125.4 239.4,116.0 240.5,115.8 241.7,136.0 242.8,118.4 244.0,121.6 245.1,130.7 246.3,114.7 247.4,120.2 248.6,122.5 249.7,131.3 250.9,115.5 252.0,122.6 253.2,129.1 254.3,121.2 255.5,123.6 256.6,123.4 257.8,123.0 258.9,122.5 260.1,122.4 261.2,117.3 262.4,115.1 263.5,129.7 264.7,129.8 265.8,119.2 267.0,123.9 268.1,118.6 269.3,123.1 270.4,125.8 271.6,129.9 272.7,124.5 273.9,120.4 275.0,123.1 276.2,127.1 277.3,123.0 278.5,123.0 279.6,122.9 280.8,123.0 281.9,123.0 283.1,123.0 284.2,123.0 285.4,123.0 286.5,123.0 287.7,125.7 288.8,137.3 290.0,124.8 291.1,129.1 292.3,129.2 293.4,121.9 294.6,126.7 295.7,122.9 296.9,124.3 298.0,106.7 299.2,104.4 300.3,105.7 301.5,108.2 302.6,124.1 303.8,122.8 304.9,123.8 306.1,118.5 307.2,128.3 308.3,107.4 309.5,127.9 310.6,109.4 311.8,134.3 312.9,108.4 314.1,132.9 315.2,125.3 316.4,123.6 317.5,122.9 318.7,122.9 319.8,123.0 321.0,123.0 322.1,123.0 323.3,123.0 324.4,123.0 325.6,123.0 326.7,122.9 327.9,121.2 329.0,126.9 330.2,123.6 331.3,135.5 332.5,154.1 333.6,170.0 334.8,116.4 335.9,145.6 337.1,123.9 338.2,101.4 339.4,125.2 340.5,131.1 341.7,132.8 342.8,114.4 344.0,142.4 345.1,121.7 346.3,128.6 347.4,117.1 348.6,111.2 349.7,113.8 350.9,111.4 352.0,112.7 353.2,137.7 354.3,129.7 355.5,110.0 356.6,123.1 357.8,122.7 358.9,123.1 360.1,123.5 361.2,123.0 362.4,123.5 363.5,133.9 364.7,120.9 365.8,131.3 367.0,136.3 368.1,121.9 369.3,123.0 370.4,123.0 371.6,123.5 372.7,120.1 373.8,124.4 375.0,115.3 376.1,141.8 377.3,138.9 378.4,88.7 379.6,147.5 380.7,122.3 381.9,123.5 383.0,121.5 384.2,123.0 385.3,122.0 386.5,121.4 387.6,126.8 388.8,122.2 389.9,120.8 391.1,125.7 392.2,123.0 393.4,120.9 394.5,116.6 395.7,122.8 396.8,122.8 398.0,118.7 399.1,124.9 400.3,124.0 401.4,122.5 402.6,126.1 403.7,118.7 404.9,122.0 406.0,126.1 407.2,122.7 408.3,122.8 409.5,122.5 410.6,122.8 411.8,122.7 412.9,118.5 414.1,135.7 415.2,133.6 416.4,124.4 417.5,117.9 418.7,123.1 419.8,123.0 421.0,123.0 422.1,122.9 423.3,123.0 424.4,123.0 425.6,123.0 426.7,123.0 427.9,123.0 429.0,127.3 430.2,122.0 431.3,98.7 432.5,127.9 433.6,101.3 434.8,140.3 435.9,123.7 437.1,113.0 438.2,92.6 439.4,127.2 440.5,111.4 441.6,123.2 442.8,117.8 443.9,138.9 445.1,119.0 446.2,112.7 447.4,114.9 448.5,115.8 449.7,116.1 450.8,137.7 452.0,132.4 453.1,122.6 454.3,124.3 455.4,123.8 456.6,123.4 457.7,119.6 458.9,119.0 460.0,147.9 461.2,122.2 462.3,129.2 463.5,140.2 464.6,141.5 465.8,126.2 466.9,106.0 468.1,119.8 469.2,121.7 470.4,122.3 471.5,113.6 472.7,122.6 473.8,129.7 475.0,122.6 476.1,124.5 477.3,123.7 478.4,123.5 479.6,127.8 480.7,141.0 481.9,115.6 483.0,131.1 484.2,123.1 485.3,122.8 486.5,122.3 487.6,123.6 488.8,125.2 489.9,104.2 491.1,111.7 492.2,142.6 493.4,107.4 494.5,121.3 495.7,122.2 496.8,123.8 498.0,137.6 499.1,123.5 500.3,116.9 501.4,120.7 502.6,125.2 503.7,123.0 504.9,123.0 506.0,123.0 507.2,123.3 508.3,123.3 509.4,109.2 510.6,123.3 511.7,137.4 512.9,117.5 514.0,129.9 515.2,111.6 516.3,125.5 517.5,123.1 518.6,124.0 519.8,133.0 520.9,120.3 522.1,133.6 523.2,127.5 524.4,114.6 525.5,123.6 526.7,127.3 527.8,117.6 529.0,126.0 530.1,121.2 531.3,122.8 532.4,122.1 533.6,118.8 534.7,125.4 535.9,124.4 537.0,123.0 538.2,122.7 539.3,123.0 540.5,128.7 541.6,120.5 542.8,127.4 543.9,128.3 545.1,125.8 546.2,112.7 547.4,122.4 548.5,127.1 549.7,128.1 550.8,118.7 552.0,119.4 553.1,126.3 554.3,123.0 555.4,121.6 556.6,122.9 557.7,128.2 558.9,125.5 560.0,122.2 561.2,121.9 562.3,110.8 563.5,147.6 564.6,128.7 565.8,122.4 566.9,122.8 568.1,123.0 569.2,123.0 570.4,123.0 571.5,123.0 572.7,123.0 573.8,123.0 575.0,123.0 576.1,123.0 577.2,104.9 578.4,151.3 579.5,163.9 580.7,111.4 581.8,121.4 583.0,137.1 584.1,123.3 585.3,122.9 586.4,121.8 587.6,121.7 588.7,126.5 589.9,117.2 591.0,127.8 592.2,99.0 593.3,119.4 594.5,122.6 595.6,125.6 596.8,131.2 597.9,119.5 599.1,119.2 600.2,123.5 601.4,111.6 602.5,108.6 603.7,104.0 604.8,119.5 606.0,127.3 607.1,122.1 608.3,123.8 609.4,130.8 610.6,127.3 611.7,131.3 612.9,123.1 614.0,131.5 615.2,122.9 616.3,121.5 617.5,113.6 618.6,110.5 619.8,127.9 620.9,128.4 622.1,123.5 623.2,121.1 624.4,122.7 625.5,130.6 626.7,129.7 627.8,122.8 629.0,123.0 630.1,122.9 631.3,123.0 632.4,123.8 633.6,125.9 634.7,120.2 635.9,125.2 637.0,123.1 638.2,122.3 639.3,122.8 640.5,122.8 641.6,123.2 642.8,122.0 643.9,124.0 645.0,127.9 646.2,117.7 647.3,122.3 648.5,123.0 649.6,118.9 650.8,124.1 651.9,121.8 653.1,120.2 654.2,124.9 655.4,123.2 656.5,128.4 657.7,109.8 658.8,129.4 660.0,124.2 661.1,122.9 662.3,122.9 663.4,123.0 664.6,122.1 665.7,134.3 666.9,118.4 668.0,111.0 669.2,122.9 670.3,123.2 671.5,123.2 672.6,123.0 673.8,122.9 674.9,122.9 676.1,123.0 677.2,123.0 678.4,123.0 679.5,123.0 680.7,123.0 681.8,121.1 683.0,126.2 684.1,127.0 685.3,156.2 686.4,103.8 687.6,123.4 688.7,122.7 689.9,122.8 691.0,102.9 692.2,117.9 693.3,118.6 694.5,97.1 695.6,154.9 696.8,126.9 697.9,129.3 699.1,125.3 700.2,123.1 701.4,118.2 702.5,128.5 703.7,123.8 704.8,97.4 706.0,110.8 707.1,122.6 708.3,126.4 709.4,123.7 710.6,103.0 711.7,150.5 712.8,110.5 714.0,81.6 715.1,99.6 716.3,117.9 717.4,122.7 718.6,123.0 719.7,125.2 720.9,119.8 722.0,121.5 723.2,113.6 724.3,114.9 725.5,122.9 726.6,122.8 727.8,124.5 728.9,131.7 730.1,129.4 731.2,129.4 732.4,122.4 733.5,105.9 734.7,121.5 735.8,122.9 737.0,119.3 738.1,121.3 739.3,132.1 740.4,127.7 741.6,119.8 742.7,121.4 743.9,120.7 745.0,122.2 746.2,123.5 747.3,123.6 748.5,118.7 749.6,128.0 750.8,122.6 751.9,119.3 753.1,129.3 754.2,125.6 755.4,124.1 756.5,125.5 757.7,121.9 758.8,121.8 760.0,123.8 761.1,122.5 762.3,125.0 763.4,122.1 764.6,117.8 765.7,128.3 766.9,123.7 768.0,120.9 769.2,122.1 770.3,123.8 771.5,124.6 772.6,126.4 773.8,124.5 774.9,123.5 776.1,123.4 777.2,122.8 778.4,123.0 779.5,123.0 780.6,123.0 781.8,123.0 782.9,123.0 784.1,123.0 785.2,123.0 786.4,123.0 787.5,99.6 788.7,155.5 789.8,116.1 791.0,120.6 792.1,122.6 793.3,122.8 794.4,123.6 795.6,121.7 796.7,120.2 797.9,117.8 799.0,129.9 800.2,93.7 801.3,154.4 802.5,110.2 803.6,147.3 804.8,152.4 805.9,124.1 807.1,124.9 808.2,115.8 809.4,123.0 810.5,113.6 811.7,127.3 812.8,114.4 814.0,142.9 815.1,104.9 816.3,122.4 817.4,90.5 818.6,120.2 819.7,123.3 820.9,122.1 822.0,122.9 823.2,123.0 824.3,122.8 825.5,110.6 826.6,105.9 827.8,149.7 828.9,124.7 830.1,145.4 831.2,122.8 832.4,132.6 833.5,106.7 834.7,124.7 835.8,119.5 837.0,122.9 838.1,122.9 839.3,123.0 840.4,122.8 841.6,122.8 842.7,110.1 843.9,119.6 845.0,122.7 846.2,122.8 847.3,119.0 848.4,122.5 849.6,118.5 850.7,125.9 851.9,122.6 853.0,111.2 854.2,129.0 855.3,123.5 856.5,122.9 857.6,122.4 858.8,121.8 859.9,120.1 861.1,120.2 862.2,121.8 863.4,113.4 864.5,122.5 865.7,122.9 866.8,128.4 868.0,120.7 869.1,118.7 870.3,114.4 871.4,132.5 872.6,129.9 873.7,122.0 874.9,128.5 876.0,128.0 877.2,130.0 878.3,121.0 879.5,123.2 880.6,122.5 881.8,122.8 882.9,123.0 884.1,113.5 885.2,126.9 886.4,109.2 887.5,138.7 888.7,124.1 889.8,122.1 891.0,122.0 892.1,122.0 893.3,113.8 894.4,129.9 895.6,125.6 896.7,123.4 897.9,124.1 899.0,122.9 900.2,123.0 901.3,129.6 902.5,115.7 903.6,125.8 904.8,115.4 905.9,124.2 907.1,123.0 908.2,124.4 909.4,123.9 910.5,122.5 911.7,116.6 912.8,141.0 913.9,123.1 915.1,108.1 916.2,123.4 917.4,123.0 918.5,122.8 919.7,122.9 920.8,123.1 922.0,123.0 923.1,123.0 924.3,123.0 925.4,123.0 926.6,123.0 927.7,123.0 928.9,122.5 930.0,115.0 931.2,111.5 932.3,108.8 933.5,146.0 934.6,123.0 935.8,112.2 936.9,120.1 938.1,122.0 939.2,122.1 940.4,124.6 941.5,123.3 942.7,129.7 943.8,135.4 945.0,124.7 946.1,143.7 947.3,117.0 948.4,122.4 949.6,123.9 950.7,122.5 951.9,133.1 953.0,136.8 954.2,136.8 955.3,123.0 956.5,122.9 957.6,122.9 958.8,123.3 959.9,122.6 961.1,149.7 962.2,145.2 963.4,123.4 964.5,128.5 965.7,128.9 966.8,137.2 968.0,124.3 969.1,140.6 970.3,137.5 971.4,119.0 972.6,123.1 973.7,123.9 974.9,122.2 976.0,116.7 977.2,127.7 978.3,131.0 979.5,125.5 980.6,123.5 981.7,122.8 982.9,122.9 984.0,123.3 985.2,115.1 986.3,112.9 987.5,135.9 988.6,135.1 989.8,123.4 990.9,124.4 992.1,122.9 993.2,122.4 994.4,124.8 995.5,124.6 996.7,122.5 997.8,125.9 999.0,123.3 1000.1,125.3 1001.3,124.5 1002.4,125.3 1003.6,127.2 1004.7,126.8 1005.9,119.9 1007.0,114.3 1008.2,124.3 1009.3,125.7 1010.5,122.9 1011.6,123.0 1012.8,123.0 1013.9,123.0 1015.1,123.0 1016.2,123.0 1017.4,123.0 1018.5,123.0 1019.7,123.0 1020.8,121.3 1022.0,115.1 1023.1,123.6 1024.3,160.8 1025.4,118.1 1026.6,121.0 1027.7,97.7 1028.9,102.2 1030.0,110.1 1031.2,78.0 1032.3,126.0 1033.5,120.2 1034.6,130.9 1035.8,104.4 1036.9,97.1 1038.1,132.7 1039.2,121.6 1040.4,123.8 1041.5,123.5 1042.7,114.2 1043.8,109.5 1045.0,124.7 1046.1,108.3 1047.3,112.2 1048.4,122.1 1049.5,122.6 1050.7,120.5 1051.8,123.8 1053.0,122.0 1054.1,125.4 1055.3,126.2 1056.4,130.0 1057.6,114.4 1058.7,97.7 1059.9,120.5 1061.0,121.0 1062.2,121.9 1063.3,123.5 1064.5,122.4 1065.6,125.6 1066.8,128.5 1067.9,134.5 1069.1,105.5 1070.2,113.4 1071.4,124.0 1072.5,134.2 1073.7,115.0 1074.8,116.1 1076.0,115.7 1077.1,131.0 1078.3,131.0 1079.4,130.7 1080.6,106.6 1081.7,134.4 1082.9,118.4 1084.0,131.2 1085.2,122.4 1086.3,122.9 1087.5,123.2 1088.6,124.6 1089.8,106.8 1090.9,113.7 1092.1,126.0 1093.2,118.3 1094.4,111.3 1095.5,132.5 1096.7,124.4 1097.8,121.2 1099.0,124.1 1100.1,121.9 1101.3,126.8 1102.4,120.4 1103.6,122.3 1104.7,122.3 1105.9,133.6 1107.0,118.7 1108.2,128.7 1109.3,122.8 1110.5,125.5 1111.6,120.6 1112.8,135.2 1113.9,127.9 1115.1,120.0 1116.2,122.8 1117.3,120.6 1118.5,126.7 1119.6,120.9 1120.8,115.9 1121.9,125.4 1123.1,115.0 1124.2,129.2 1125.4,123.2 1126.5,124.6 1127.7,117.7 1128.8,134.3 1130.0,116.9 1131.1,115.7 1132.3,135.1 1133.4,126.4 1134.6,123.6 1135.7,129.4 1136.9,122.6 1138.0,120.0 1139.2,117.6 1140.3,118.5 1141.5,124.1 1142.6,123.3 1143.8,122.8 1144.9,123.3 1146.1,123.1 1147.2,122.9 1148.4,119.2 1149.5,126.7 1150.7,115.8 1151.8,116.6 1153.0,115.1 1154.1,126.2 1155.3,122.8 1156.4,122.7 1157.6,123.1 1158.7,119.8 1159.9,122.9 1161.0,117.0 1162.2,127.9 1163.3,124.6 1164.5,122.5 1165.6,128.7 1166.8,132.8 1167.9,130.2 1169.1,124.5 1170.2,129.0 1171.4,129.3 1172.5,120.8 1173.7,124.0 1174.8,125.6 1176.0,122.8 1177.1,126.2 1178.3,114.4 1179.4,119.8 1180.6,123.1 1181.7,124.7 1182.9,126.5 1184.0,120.0" fill="none" stroke="#7a4e9d" stroke-width="1.2"/>
</svg>