<svg xmlns="http://www.w3.org/2000/svg" width="1220" height="210" viewBox="0 0 1220 210">
<rect width="100%" height="100%" fill="#fbfaf7"/>
<text x="30" y="36" font-family="Arial" font-size="22" font-weight="700" fill="#1f2d36">single_male.wav</text>
<text x="30" y="60" font-family="Arial" font-size="13" fill="#53636d">sr=44100 Hz, channels=1, duration=599.82s, displayed first 30.0s, RMS=0.0472</text>
<line x1="36" x2="1184" y1="124" y2="124" stroke="#d8d1c7" stroke-width="1"/>
<polyline points="36.0,127.7 37.1,127.7 38.3,127.7 39.4,127.7 40.6,127.7 41.7,127.7 42.9,127.7 44.0,127.7 45.2,127.7 46.3,127.7 47.5,127.7 48.6,127.7 49.8,126.3 50.9,120.2 52.1,118.6 53.2,131.8 54.4,138.6 55.5,137.5 56.7,127.7 57.8,127.0 59.0,128.1 60.1,127.8 61.3,127.2 62.4,134.9 63.6,124.6 64.7,129.1 65.9,128.3 67.0,127.5 68.2,127.5 69.3,126.9 70.5,124.8 71.6,127.7 72.8,129.2 73.9,129.0 75.1,128.3 76.2,128.7 77.4,127.5 78.5,127.7 79.7,128.2 80.8,126.3 82.0,128.7 83.1,128.5 84.3,127.7 85.4,128.7 86.6,129.6 87.7,131.5 88.9,115.9 90.0,130.5 91.2,127.6 92.3,130.0 93.5,123.9 94.6,127.1 95.8,128.9 96.9,126.0 98.1,125.7 99.2,128.3 100.4,127.7 101.5,127.7 102.7,127.7 103.8,127.7 104.9,127.7 106.1,127.7 107.2,127.7 108.4,127.7 109.5,127.7 110.7,127.7 111.8,127.8 113.0,128.2 114.1,126.6 115.3,126.1 116.4,109.4 117.6,129.3 118.7,108.3 119.9,117.7 121.0,124.9 122.2,103.5 123.3,128.6 124.5,119.6 125.6,136.8 126.8,136.7 127.9,130.6 129.1,125.2 130.2,121.9 131.4,121.9 132.5,121.0 133.7,127.0 134.8,127.6 136.0,127.9 137.1,128.0 138.3,129.5 139.4,132.3 140.6,150.1 141.7,134.8 142.9,127.0 144.0,121.6 145.2,123.1 146.3,128.4 147.5,150.3 148.6,135.6 149.8,132.7 150.9,135.9 152.1,119.8 153.2,126.0 154.4,124.3 155.5,127.6 156.7,127.1 157.8,130.5 159.0,129.6 160.1,148.1 161.3,113.4 162.4,116.4 163.6,126.4 164.7,126.9 165.9,126.3 167.0,127.4 168.2,135.6 169.3,112.6 170.5,107.1 171.6,139.5 172.7,120.8 173.9,129.9 175.0,130.1 176.2,127.9 177.3,127.8 178.5,128.8 179.6,122.8 180.8,129.8 181.9,129.8 183.1,129.4 184.2,127.7 185.4,127.9 186.5,127.7 187.7,127.7 188.8,127.7 190.0,127.7 191.1,127.7 192.3,127.7 193.4,127.7 194.6,127.7 195.7,127.6 196.9,128.7 198.0,127.7 199.2,127.7 200.3,128.2 201.5,121.6 202.6,114.5 203.8,143.3 204.9,120.5 206.1,127.4 207.2,140.5 208.4,125.9 209.5,141.2 210.7,129.8 211.8,125.5 213.0,131.5 214.1,137.4 215.3,126.4 216.4,133.2 217.6,130.5 218.7,127.9 219.9,127.8 221.0,129.4 222.2,151.8 223.3,122.7 224.5,124.6 225.6,115.1 226.8,124.2 227.9,126.9 229.1,129.6 230.2,128.5 231.4,127.2 232.5,128.5 233.7,126.0 234.8,142.3 236.0,105.6 237.1,133.3 238.3,134.2 239.4,139.9 240.5,116.7 241.7,138.3 242.8,129.4 244.0,124.4 245.1,129.2 246.3,128.5 247.4,127.7 248.6,127.7 249.7,127.7 250.9,127.7 252.0,127.7 253.2,127.7 254.3,127.7 255.5,127.7 256.6,127.7 257.8,127.6 258.9,127.4 260.1,127.2 261.2,127.9 262.4,127.0 263.5,78.0 264.7,101.0 265.8,129.9 267.0,143.8 268.1,147.1 269.3,145.3 270.4,126.3 271.6,125.9 272.7,140.7 273.9,116.2 275.0,124.8 276.2,128.5 277.3,127.7 278.5,132.5 279.6,124.0 280.8,127.3 281.9,127.6 283.1,127.6 284.2,128.2 285.4,118.8 286.5,120.2 287.7,119.4 288.8,112.3 290.0,121.9 291.1,129.3 292.3,126.9 293.4,125.7 294.6,126.4 295.7,124.8 296.9,132.6 298.0,136.4 299.2,128.4 300.3,127.9 301.5,127.9 302.6,130.2 303.8,127.3 304.9,127.5 306.1,114.0 307.2,129.5 308.3,135.4 309.5,134.9 310.6,130.7 311.8,124.3 312.9,127.7 314.1,127.7 315.2,127.7 316.4,127.7 317.5,127.7 318.7,127.7 319.8,127.7 321.0,127.7 322.1,127.7 323.3,127.5 324.4,127.4 325.6,127.7 326.7,128.0 327.9,126.8 329.0,83.2 330.2,102.8 331.3,129.1 332.5,142.3 333.6,144.3 334.8,133.5 335.9,131.7 337.1,139.8 338.2,138.4 339.4,128.7 340.5,133.3 341.7,132.5 342.8,132.0 344.0,126.4 345.1,129.5 346.3,127.6 347.4,127.9 348.6,126.0 349.7,134.5 350.9,111.8 352.0,140.9 353.2,142.4 354.3,115.1 355.5,129.7 356.6,129.9 357.8,129.4 358.9,127.9 360.1,126.8 361.2,132.7 362.4,128.8 363.5,127.7 364.7,127.7 365.8,124.6 367.0,113.3 368.1,110.4 369.3,101.3 370.4,134.2 371.6,123.9 372.7,121.5 373.8,123.1 375.0,128.7 376.1,128.1 377.3,127.7 378.4,127.7 379.6,127.7 380.7,127.7 381.9,127.7 383.0,127.7 384.2,127.7 385.3,127.7 386.5,127.2 387.6,128.7 388.8,127.5 389.9,128.3 391.1,129.4 392.2,102.7 393.4,126.6 394.5,160.1 395.7,143.0 396.8,144.3 398.0,142.1 399.1,126.6 400.3,136.3 401.4,115.6 402.6,105.1 403.7,126.7 404.9,134.7 406.0,134.7 407.2,125.0 408.3,122.4 409.5,127.9 410.6,127.7 411.8,128.2 412.9,138.3 414.1,111.6 415.2,150.7 416.4,136.8 417.5,131.7 418.7,129.4 419.8,125.5 421.0,128.6 422.1,127.0 423.3,146.2 424.4,142.0 425.6,126.7 426.7,127.6 427.9,129.8 429.0,125.6 430.2,121.7 431.3,124.7 432.5,128.8 433.6,132.3 434.8,129.3 435.9,128.2 437.1,131.4 438.2,126.4 439.4,126.5 440.5,128.1 441.6,127.7 442.8,127.7 443.9,127.7 445.1,127.7 446.2,127.7 447.4,127.7 448.5,127.7 449.7,127.7 450.8,127.7 452.0,127.8 453.1,128.0 454.3,127.5 455.4,127.5 456.6,127.3 457.7,121.1 458.9,123.4 460.0,144.3 461.2,128.9 462.3,111.6 463.5,132.8 464.6,130.3 465.8,122.5 466.9,127.9 468.1,126.8 469.2,128.5 470.4,123.9 471.5,135.6 472.7,135.7 473.8,135.3 475.0,137.7 476.1,129.0 477.3,128.0 478.4,127.1 479.6,126.4 480.7,143.8 481.9,104.0 483.0,141.1 484.2,112.8 485.3,105.6 486.5,119.9 487.6,125.0 488.8,126.5 489.9,125.7 491.1,113.4 492.2,128.0 493.4,128.4 494.5,129.1 495.7,126.3 496.8,117.1 498.0,122.0 499.1,123.6 500.3,125.5 501.4,126.6 502.6,126.3 503.7,127.7 504.9,128.2 506.0,129.8 507.2,127.0 508.3,127.1 509.4,128.9 510.6,124.2 511.7,127.6 512.9,127.7 514.0,127.9 515.2,127.0 516.3,128.1 517.5,117.9 518.6,122.4 519.8,128.1 520.9,135.2 522.1,126.3 523.2,127.3 524.4,129.1 525.5,128.1 526.7,131.4 527.8,126.0 529.0,130.2 530.1,127.6 531.3,127.6 532.4,128.1 533.6,127.3 534.7,132.3 535.9,133.4 537.0,138.5 538.2,130.1 539.3,123.7 540.5,127.6 541.6,126.4 542.8,130.3 543.9,131.5 545.1,131.8 546.2,131.8 547.4,133.8 548.5,133.2 549.7,132.3 550.8,131.8 552.0,130.3 553.1,127.7 554.3,127.7 555.4,127.7 556.6,127.7 557.7,127.7 558.9,127.7 560.0,127.7 561.2,127.7 562.3,127.7 563.5,127.7 564.6,127.8 565.8,126.8 566.9,117.9 568.1,122.3 569.2,102.0 570.4,114.6 571.5,129.4 572.7,128.4 573.8,129.7 575.0,88.4 576.1,142.2 577.2,133.1 578.4,93.9 579.5,123.1 580.7,127.3 581.8,125.6 583.0,126.9 584.1,127.1 585.3,125.3 586.4,147.0 587.6,146.3 588.7,115.4 589.9,129.6 591.0,126.5 592.2,129.8 593.3,126.0 594.5,127.9 595.6,122.9 596.8,132.2 597.9,140.1 599.1,141.5 600.2,144.8 601.4,134.5 602.5,133.4 603.7,124.9 604.8,127.9 606.0,127.7 607.1,126.8 608.3,124.7 609.4,124.0 610.6,124.8 611.7,123.8 612.9,120.4 614.0,134.9 615.2,131.6 616.3,129.9 617.5,139.0 618.6,133.7 619.8,136.7 620.9,140.0 622.1,128.7 623.2,128.1 624.4,123.9 625.5,131.9 626.7,119.6 627.8,134.1 629.0,127.0 630.1,129.1 631.3,126.7 632.4,127.9 633.6,127.0 634.7,127.1 635.9,125.8 637.0,122.5 638.2,122.4 639.3,135.1 640.5,127.8 641.6,127.6 642.8,127.4 643.9,127.5 645.0,127.8 646.2,110.4 647.3,138.3 648.5,127.8 649.6,131.5 650.8,127.3 651.9,127.8 653.1,127.4 654.2,116.9 655.4,127.8 656.5,136.8 657.7,115.0 658.8,138.5 660.0,127.6 661.1,129.9 662.3,124.1 663.4,127.4 664.6,131.0 665.7,137.6 666.9,129.9 668.0,127.7 669.2,130.5 670.3,127.2 671.5,123.9 672.6,130.9 673.8,127.5 674.9,129.2 676.1,127.7 677.2,127.7 678.4,127.7 679.5,127.7 680.7,127.7 681.8,127.7 683.0,127.7 684.1,127.7 685.3,127.8 686.4,127.9 687.6,126.9 688.7,129.2 689.9,129.4 691.0,114.0 692.2,164.1 693.3,150.7 694.5,137.3 695.6,128.4 696.8,131.5 697.9,131.4 699.1,128.0 700.2,135.1 701.4,118.3 702.5,123.7 703.7,131.2 704.8,129.2 706.0,116.1 707.1,125.0 708.3,128.5 709.4,133.5 710.6,114.5 711.7,130.9 712.8,148.8 714.0,139.6 715.1,97.3 716.3,129.5 717.4,130.1 718.6,132.9 719.7,132.0 720.9,129.8 722.0,131.1 723.2,133.6 724.3,133.0 725.5,129.1 726.6,128.0 727.8,127.7 728.9,129.2 730.1,119.2 731.2,131.8 732.4,113.9 733.5,121.4 734.7,136.0 735.8,131.8 737.0,126.7 738.1,126.6 739.3,117.0 740.4,118.3 741.6,122.5 742.7,124.9 743.9,125.8 745.0,131.1 746.2,126.7 747.3,125.6 748.5,128.6 749.6,130.7 750.8,127.0 751.9,132.5 753.1,124.1 754.2,123.2 755.4,126.8 756.5,129.1 757.7,147.4 758.8,142.3 760.0,134.8 761.1,141.1 762.3,128.1 763.4,125.7 764.6,124.1 765.7,129.7 766.9,128.8 768.0,127.6 769.2,127.7 770.3,127.7 771.5,127.7 772.6,127.7 773.8,127.7 774.9,127.7 776.1,127.7 777.2,127.7 778.4,127.7 779.5,130.0 780.6,127.6 781.8,90.6 782.9,110.2 784.1,95.4 785.2,141.3 786.4,130.8 787.5,127.1 788.7,128.3 789.8,132.2 791.0,130.3 792.1,131.9 793.3,135.2 794.4,123.2 795.6,131.3 796.7,125.1 797.9,131.4 799.0,128.5 800.2,124.0 801.3,127.5 802.5,131.7 803.6,125.3 804.8,132.0 805.9,126.0 807.1,120.2 808.2,130.3 809.4,130.9 810.5,113.8 811.7,109.7 812.8,131.2 814.0,124.7 815.1,129.7 816.3,130.2 817.4,128.0 818.6,140.2 819.7,137.1 820.9,125.1 822.0,129.1 823.2,127.6 824.3,128.1 825.5,130.0 826.6,132.3 827.8,123.7 828.9,132.1 830.1,130.3 831.2,129.7 832.4,127.1 833.5,128.7 834.7,127.8 835.8,129.4 837.0,123.1 838.1,122.4 839.3,124.6 840.4,129.0 841.6,128.0 842.7,126.1 843.9,128.6 845.0,127.5 846.2,129.1 847.3,128.2 848.4,127.7 849.6,127.7 850.7,127.7 851.9,127.7 853.0,127.7 854.2,127.7 855.3,127.7 856.5,127.7 857.6,127.7 858.8,127.2 859.9,138.5 861.1,138.7 862.2,93.4 863.4,135.2 864.5,111.2 865.7,137.2 866.8,132.1 868.0,138.1 869.1,133.3 870.3,124.9 871.4,127.5 872.6,130.7 873.7,126.9 874.9,129.8 876.0,111.2 877.2,112.8 878.3,140.9 879.5,116.9 880.6,108.1 881.8,127.7 882.9,125.1 884.1,126.8 885.2,138.5 886.4,139.9 887.5,107.6 888.7,149.4 889.8,150.3 891.0,129.5 892.1,129.3 893.3,129.2 894.4,127.2 895.6,122.5 896.7,118.5 897.9,119.3 899.0,116.4 900.2,121.9 901.3,117.5 902.5,128.2 903.6,126.2 904.8,129.3 905.9,125.8 907.1,152.4 908.2,130.2 909.4,136.5 910.5,132.1 911.7,120.3 912.8,127.6 913.9,127.5 915.1,121.6 916.2,119.4 917.4,129.5 918.5,127.8 919.7,128.2 920.8,127.8 922.0,141.4 923.1,125.2 924.3,144.6 925.4,131.6 926.6,127.7 927.7,124.0 928.9,132.0 930.0,127.7 931.2,118.3 932.3,125.1 933.5,125.7 934.6,127.5 935.8,126.3 936.9,114.7 938.1,136.7 939.2,141.9 940.4,134.2 941.5,127.7 942.7,127.8 943.8,127.7 945.0,131.7 946.1,121.4 947.3,124.5 948.4,140.7 949.6,133.6 950.7,128.8 951.9,130.0 953.0,137.1 954.2,112.7 955.3,132.4 956.5,121.9 957.6,125.4 958.8,124.8 959.9,120.6 961.1,134.0 962.2,127.4 963.4,127.7 964.5,127.7 965.7,127.7 966.8,127.7 968.0,127.7 969.1,127.7 970.3,127.7 971.4,127.7 972.6,127.7 973.7,128.2 974.9,123.3 976.0,147.7 977.2,153.6 978.3,117.5 979.5,141.3 980.6,170.0 981.7,159.3 982.9,142.7 984.0,135.3 985.2,127.6 986.3,126.4 987.5,127.4 988.6,128.2 989.8,125.7 990.9,127.0 992.1,125.8 993.2,127.8 994.4,114.5 995.5,136.3 996.7,128.8 997.8,130.3 999.0,118.9 1000.1,123.1 1001.3,128.7 1002.4,128.7 1003.6,121.4 1004.7,132.9 1005.9,133.5 1007.0,130.2 1008.2,116.5 1009.3,136.7 1010.5,120.2 1011.6,132.9 1012.8,123.1 1013.9,125.9 1015.1,127.3 1016.2,128.1 1017.4,127.7 1018.5,128.0 1019.7,128.1 1020.8,128.1 1022.0,127.6 1023.1,127.2 1024.3,128.0 1025.4,126.7 1026.6,126.9 1027.7,127.7 1028.9,127.9 1030.0,127.5 1031.2,128.7 1032.3,127.3 1033.5,133.4 1034.6,129.9 1035.8,127.0 1036.9,127.8 1038.1,127.7 1039.2,130.8 1040.4,128.7 1041.5,130.6 1042.7,128.3 1043.8,130.3 1045.0,130.2 1046.1,128.1 1047.3,128.4 1048.4,127.4 1049.5,128.5 1050.7,121.6 1051.8,124.3 1053.0,122.5 1054.1,127.8 1055.3,127.8 1056.4,124.7 1057.6,129.4 1058.7,120.3 1059.9,120.9 1061.0,128.3 1062.2,127.9 1063.3,127.7 1064.5,128.7 1065.6,128.5 1066.8,126.7 1067.9,127.6 1069.1,127.5 1070.2,128.0 1071.4,128.3 1072.5,128.7 1073.7,126.9 1074.8,137.0 1076.0,125.7 1077.1,133.8 1078.3,127.3 1079.4,127.2 1080.6,127.0 1081.7,127.0 1082.9,101.5 1084.0,117.9 1085.2,132.4 1086.3,125.4 1087.5,127.8 1088.6,125.0 1089.8,127.1 1090.9,126.9 1092.1,127.5 1093.2,129.4 1094.4,128.4 1095.5,127.1 1096.7,127.1 1097.8,128.5 1099.0,127.6 1100.1,127.5 1101.3,128.7 1102.4,127.1 1103.6,127.3 1104.7,127.2 1105.9,126.0 1107.0,128.9 1108.2,128.2 1109.3,128.8 1110.5,128.5 1111.6,128.2 1112.8,127.7 1113.9,127.7 1115.1,127.7 1116.2,127.7 1117.3,127.7 1118.5,127.7 1119.6,127.7 1120.8,127.7 1121.9,127.7 1123.1,127.6 1124.2,127.6 1125.4,127.5 1126.5,126.6 1127.7,81.2 1128.8,112.3 1130.0,104.6 1131.1,163.0 1132.3,126.0 1133.4,124.4 1134.6,128.8 1135.7,127.5 1136.9,132.0 1138.0,121.1 1139.2,118.7 1140.3,124.7 1141.5,115.6 1142.6,118.0 1143.8,128.2 1144.9,125.6 1146.1,123.1 1147.2,144.4 1148.4,130.1 1149.5,134.1 1150.7,108.1 1151.8,128.4 1153.0,127.6 1154.1,127.6 1155.3,127.7 1156.4,142.2 1157.6,122.1 1158.7,137.0 1159.9,124.2 1161.0,129.7 1162.2,135.1 1163.3,132.2 1164.5,128.7 1165.6,130.5 1166.8,127.8 1167.9,125.6 1169.1,125.1 1170.2,128.0 1171.4,127.9 1172.5,127.6 1173.7,128.0 1174.8,127.6 1176.0,129.6 1177.1,122.2 1178.3,126.7 1179.4,126.0 1180.6,128.0 1181.7,138.7 1182.9,118.2 1184.0,128.6" fill="none" stroke="#7a4e9d" stroke-width="1.2"/>
</svg>