<svg xmlns="http://www.w3.org/2000/svg" width="1220" height="320" viewBox="0 0 1220 320">
<rect width="100%" height="100%" fill="#fbfaf7"/>
<text x="30" y="36" font-family="Arial" font-size="22" font-weight="700" fill="#1f2d36">single_male_acoustic.csv</text>
<text x="30" y="60" font-family="Arial" font-size="13" fill="#53636d">First 4000 rows with f0/intensity values.</text>
<text x="30" y="98" font-family="Arial" font-size="13" fill="#21313a">F0</text>
<polyline points="96.0,160.0 97.1,160.0 98.2,160.0 99.3,160.0 100.4,160.0 101.4,160.0 102.5,160.0 103.6,160.0 104.7,160.0 105.8,160.0 106.9,160.0 108.0,160.0 109.1,160.0 110.2,160.0 111.2,160.0 112.3,160.0 113.4,160.0 114.5,160.0 115.6,160.0 116.7,160.0 117.8,160.0 118.9,160.0 120.0,160.0 121.0,160.0 122.1,160.0 123.2,160.0 124.3,160.0 125.4,160.0 126.5,160.0 127.6,160.0 128.7,160.0 129.8,160.0 130.9,160.0 131.9,160.0 133.0,160.0 134.1,160.0 135.2,160.0 136.3,160.0 137.4,160.0 138.5,160.0 139.6,160.0 140.7,160.0 141.7,160.0 142.8,160.0 143.9,160.0 145.0,160.0 146.1,160.0 147.2,160.0 148.3,160.0 149.4,160.0 150.5,160.0 151.5,160.0 152.6,160.0 153.7,160.0 154.8,160.0 155.9,160.0 157.0,160.0 158.1,160.0 159.2,160.0 160.3,160.0 161.3,160.0 162.4,160.0 163.5,160.0 164.6,160.0 165.7,160.0 166.8,160.0 167.9,160.0 169.0,127.5 170.1,94.8 171.1,95.6 172.2,96.6 173.3,96.9 174.4,97.2 175.5,97.6 176.6,98.1 177.7,99.2 178.8,100.3 179.9,101.0 180.9,101.6 182.0,102.3 183.1,103.1 184.2,103.6 185.3,104.2 186.4,105.5 187.5,106.8 188.6,107.0 189.7,107.1 190.8,107.8 191.8,108.5 192.9,108.8 194.0,109.2 195.1,110.0 196.2,110.9 197.3,110.9 198.4,111.0 199.5,111.2 200.6,111.3 201.6,111.3 202.7,111.3 203.8,111.3 204.9,111.4 206.0,111.1 207.1,110.9 208.2,110.6 209.3,110.3 210.4,134.9 211.4,159.7 212.5,160.0 213.6,160.0 214.7,160.0 215.8,160.0 216.9,160.0 218.0,160.0 219.1,160.0 220.2,160.0 221.2,160.0 222.3,160.0 223.4,160.0 224.5,160.0 225.6,160.0 226.7,160.0 227.8,160.0 228.9,160.0 230.0,160.0 231.0,160.0 232.1,160.0 233.2,160.0 234.3,160.0 235.4,160.0 236.5,160.0 237.6,160.0 238.7,126.1 239.8,91.6 240.8,91.1 241.9,91.0 243.0,91.3 244.1,91.5 245.2,92.3 246.3,93.1 247.4,94.2 248.5,95.2 249.6,96.6 250.7,98.1 251.7,98.6 252.8,99.2 253.9,129.1 255.0,159.5 256.1,160.0 257.2,160.0 258.3,160.0 259.4,160.0 260.5,160.0 261.5,160.0 262.6,160.0 263.7,160.0 264.8,160.0 265.9,160.0 267.0,160.0 268.1,160.0 269.2,130.0 270.3,99.4 271.3,99.2 272.4,99.6 273.5,99.8 274.6,100.1 275.7,100.5 276.8,100.9 277.9,102.5 279.0,104.1 280.1,105.1 281.1,106.0 282.2,107.9 283.3,109.7 284.4,110.9 285.5,112.1 286.6,112.2 287.7,112.3 288.8,113.0 289.9,113.8 290.9,114.6 292.0,115.4 293.1,137.2 294.2,159.6 295.3,138.3 296.4,116.2 297.5,116.7 298.6,117.7 299.7,118.3 300.7,118.9 301.8,119.6 302.9,120.2 304.0,120.5 305.1,120.8 306.2,120.8 307.3,120.8 308.4,121.0 309.5,121.2 310.6,121.2 311.6,121.2 312.7,121.8 313.8,122.5 314.9,121.9 316.0,121.4 317.1,121.9 318.2,122.5 319.3,122.6 320.4,122.7 321.4,140.9 322.5,159.6 323.6,160.0 324.7,160.0 325.8,160.0 326.9,160.0 328.0,160.0 329.1,160.0 330.2,160.0 331.2,160.0 332.3,160.0 333.4,160.0 334.5,160.0 335.6,160.0 336.7,160.0 337.8,160.0 338.9,160.0 340.0,160.0 341.0,160.0 342.1,160.0 343.2,160.0 344.3,160.0 345.4,160.0 346.5,160.0 347.6,160.0 348.7,160.0 349.8,160.0 350.8,160.0 351.9,160.0 353.0,160.0 354.1,160.0 355.2,160.0 356.3,160.0 357.4,160.0 358.5,160.0 359.6,160.0 360.6,160.0 361.7,160.0 362.8,160.0 363.9,160.0 365.0,160.0 366.1,160.0 367.2,160.0 368.3,160.0 369.4,160.0 370.5,160.0 371.5,160.0 372.6,160.0 373.7,160.0 374.8,160.0 375.9,135.7 377.0,110.6 378.1,110.4 379.2,110.9 380.3,111.3 381.3,111.8 382.4,112.3 383.5,112.7 384.6,113.6 385.7,114.4 386.8,114.9 387.9,115.4 389.0,115.6 390.1,115.8 391.1,116.4 392.2,117.0 393.3,117.3 394.4,117.6 395.5,118.1 396.6,118.6 397.7,118.7 398.8,118.7 399.9,138.7 400.9,159.4 402.0,160.0 403.1,160.0 404.2,160.0 405.3,160.0 406.4,160.0 407.5,160.0 408.6,160.0 409.7,160.0 410.7,136.6 411.8,112.4 412.9,112.8 414.0,114.0 415.1,114.5 416.2,114.9 417.3,115.1 418.4,115.2 419.5,115.1 420.5,114.9 421.6,114.9 422.7,114.8 423.8,114.8 424.9,114.8 426.0,114.7 427.1,114.5 428.2,114.4 429.3,114.2 430.4,114.3 431.4,114.4 432.5,114.3 433.6,114.1 434.7,113.9 435.8,113.6 436.9,113.2 438.0,112.8 439.1,112.8 440.2,112.8 441.2,112.6 442.3,112.5 443.4,112.2 444.5,111.9 445.6,111.4 446.7,110.9 447.8,110.8 448.9,110.8 450.0,134.5 451.0,159.1 452.1,160.0 453.2,160.0 454.3,160.0 455.4,160.0 456.5,160.0 457.6,160.0 458.7,160.0 459.8,160.0 460.8,160.0 461.9,160.0 463.0,160.0 464.1,160.0 465.2,160.0 466.3,160.0 467.4,160.0 468.5,160.0 469.6,160.0 470.6,160.0 471.7,160.0 472.8,160.0 473.9,160.0 475.0,160.0 476.1,160.0 477.2,160.0 478.3,160.0 479.4,160.0 480.4,160.0 481.5,160.0 482.6,160.0 483.7,160.0 484.8,160.0 485.9,160.0 487.0,160.0 488.1,160.0 489.2,160.0 490.3,160.0 491.3,160.0 492.4,160.0 493.5,160.0 494.6,160.0 495.7,160.0 496.8,160.0 497.9,160.0 499.0,160.0 500.1,160.0 501.1,160.0 502.2,160.0 503.3,160.0 504.4,160.0 505.5,160.0 506.6,160.0 507.7,160.0 508.8,160.0 509.9,160.0 510.9,160.0 512.0,160.0 513.1,160.0 514.2,160.0 515.3,160.0 516.4,160.0 517.5,160.0 518.6,160.0 519.7,160.0 520.7,160.0 521.8,160.0 522.9,160.0 524.0,160.0 525.1,160.0 526.2,160.0 527.3,160.0 528.4,160.0 529.5,160.0 530.5,160.0 531.6,160.0 532.7,160.0 533.8,160.0 534.9,160.0 536.0,160.0 537.1,160.0 538.2,160.0 539.3,136.2 540.3,111.3 541.4,105.3 542.5,100.3 543.6,101.9 544.7,103.8 545.8,103.7 546.9,103.5 548.0,103.4 549.1,103.3 550.2,102.9 551.2,102.6 552.3,101.7 553.4,100.9 554.5,100.3 555.6,99.7 556.7,98.7 557.8,97.6 558.9,97.2 560.0,96.8 561.0,95.9 562.1,94.9 563.2,93.1 564.3,91.3 565.4,89.3 566.5,87.3 567.6,85.3 568.7,83.3 569.8,82.7 570.8,82.2 571.9,81.8 573.0,81.5 574.1,81.5 575.2,81.5 576.3,82.1 577.4,82.8 578.5,84.0 579.6,85.1 580.6,86.0 581.7,86.8 582.8,89.0 583.9,91.2 585.0,94.1 586.1,97.0 587.2,98.5 588.3,100.0 589.4,103.0 590.4,106.1 591.5,107.5 592.6,108.8 593.7,109.2 594.8,109.6 595.9,111.3 597.0,113.2 598.1,114.6 599.2,116.0 600.2,116.9 601.3,117.8 602.4,118.4 603.5,118.9 604.6,119.4 605.7,119.9 606.8,120.3 607.9,120.6 609.0,120.8 610.1,120.9 611.1,121.2 612.2,121.5 613.3,121.8 614.4,122.2 615.5,122.3 616.6,122.4 617.7,122.5 618.8,122.6 619.9,122.6 620.9,122.6 622.0,122.5 623.1,122.3 624.2,122.4 625.3,122.4 626.4,122.4 627.5,122.5 628.6,122.4 629.7,122.4 630.7,122.3 631.8,122.3 632.9,122.3 634.0,122.2 635.1,122.0 636.2,121.7 637.3,121.8 638.4,121.9 639.5,122.0 640.5,122.1 641.6,121.5 642.7,120.8 643.8,139.3 644.9,158.9 646.0,160.0 647.1,160.0 648.2,160.0 649.3,160.0 650.3,160.0 651.4,160.0 652.5,160.0 653.6,160.0 654.7,160.0 655.8,160.0 656.9,160.0 658.0,160.0 659.1,160.0 660.1,160.0 661.2,160.0 662.3,160.0 663.4,160.0 664.5,160.0 665.6,160.0 666.7,160.0 667.8,123.4 668.9,84.6 669.9,82.6 671.0,82.9 672.1,83.0 673.2,83.1 674.3,82.5 675.4,81.9 676.5,81.7 677.6,81.4 678.7,81.3 679.8,81.3 680.8,81.2 681.9,81.1 683.0,81.1 684.1,81.1 685.2,80.8 686.3,80.6 687.4,80.4 688.5,80.1 689.6,80.4 690.6,80.6 691.7,80.9 692.8,81.2 693.9,81.1 695.0,81.0 696.1,80.6 697.2,80.2 698.3,80.2 699.4,80.2 700.4,80.3 701.5,80.5 702.6,80.8 703.7,81.2 704.8,81.6 705.9,81.9 707.0,82.5 708.1,83.1 709.2,84.5 710.2,85.9 711.3,87.6 712.4,89.3 713.5,91.5 714.6,93.7 715.7,124.9 716.8,157.9 717.9,160.0 719.0,160.0 720.0,160.0 721.1,160.0 722.2,160.0 723.3,160.0 724.4,136.7 725.5,111.9 726.6,112.5 727.7,114.9 728.8,116.2 729.8,117.4 730.9,117.4 732.0,117.2 733.1,118.7 734.2,120.2 735.3,121.0 736.4,121.7 737.5,122.1 738.6,122.5 739.7,122.7 740.7,123.0 741.8,123.3 742.9,123.6 744.0,123.8 745.1,124.0 746.2,124.0 747.3,124.0 748.4,124.4 749.5,124.8 750.5,124.8 751.6,124.8 752.7,124.7 753.8,124.6 754.9,124.6 756.0,124.6 757.1,124.6 758.2,124.7 759.3,125.0 760.3,125.3 761.4,125.6 762.5,125.9 763.6,141.8 764.7,158.8 765.8,160.0 766.9,160.0 768.0,160.0 769.1,160.0 770.1,160.0 771.2,160.0 772.3,160.0 773.4,160.0 774.5,160.0 775.6,160.0 776.7,160.0 777.8,160.0 778.9,160.0 779.9,160.0 781.0,160.0 782.1,160.0 783.2,160.0 784.3,160.0 785.4,131.3 786.5,100.6 787.6,97.8 788.7,97.2 789.7,96.8 790.8,96.5 791.9,96.7 793.0,96.9 794.1,97.4 795.2,98.0 796.3,99.0 797.4,100.0 798.5,100.8 799.6,101.5 800.6,102.0 801.7,102.5 802.8,103.3 803.9,104.1 805.0,104.9 806.1,105.7 807.2,106.6 808.3,107.5 809.4,108.1 810.4,108.5 811.5,109.2 812.6,109.8 813.7,110.6 814.8,111.4 815.9,111.5 817.0,111.5 818.1,134.0 819.2,158.2 820.2,160.0 821.3,160.0 822.4,160.0 823.5,160.0 824.6,160.0 825.7,160.0 826.8,160.0 827.9,160.0 829.0,160.0 830.0,160.0 831.1,160.0 832.2,160.0 833.3,160.0 834.4,160.0 835.5,160.0 836.6,160.0 837.7,129.0 838.8,95.6 839.8,95.9 840.9,99.1 842.0,99.5 843.1,99.7 844.2,99.8 845.3,99.9 846.4,100.0 847.5,100.1 848.6,99.6 849.6,99.1 850.7,98.6 851.8,98.2 852.9,97.8 854.0,97.3 855.1,97.3 856.2,97.2 857.3,97.3 858.4,97.4 859.5,97.8 860.5,98.4 861.6,99.4 862.7,100.5 863.8,101.8 864.9,103.2 866.0,104.7 867.1,106.3 868.2,107.1 869.3,107.9 870.3,109.3 871.4,110.6 872.5,112.1 873.6,113.7 874.7,115.0 875.8,116.3 876.9,117.3 878.0,118.2 879.1,119.0 880.1,119.7 881.2,120.2 882.3,120.6 883.4,120.8 884.5,121.0 885.6,121.1 886.7,121.2 887.8,121.4 888.9,121.5 889.9,121.8 891.0,122.1 892.1,122.5 893.2,122.9 894.3,123.0 895.4,123.1 896.5,123.1 897.6,123.2 898.7,123.1 899.7,123.1 900.8,123.2 901.9,123.3 903.0,123.4 904.1,123.4 905.2,123.2 906.3,122.9 907.4,122.9 908.5,122.8 909.5,122.7 910.6,122.6 911.7,122.5 912.8,122.4 913.9,122.2 915.0,122.1 916.1,121.7 917.2,121.3 918.3,121.2 919.4,121.1 920.4,122.2 921.5,123.5 922.6,123.5 923.7,123.4 924.8,123.1 925.9,122.9 927.0,123.8 928.1,124.9 929.2,125.0 930.2,125.1 931.3,122.1 932.4,118.8 933.5,137.5 934.6,158.2 935.7,160.0 936.8,160.0 937.9,160.0 939.0,160.0 940.0,160.0 941.1,160.0 942.2,160.0 943.3,160.0 944.4,160.0 945.5,160.0 946.6,160.0 947.7,160.0 948.8,160.0 949.8,160.0 950.9,160.0 952.0,160.0 953.1,160.0 954.2,160.0 955.3,160.0 956.4,160.0 957.5,160.0 958.6,160.0 959.6,160.0 960.7,160.0 961.8,160.0 962.9,160.0 964.0,160.0 965.1,160.0 966.2,160.0 967.3,160.0 968.4,160.0 969.4,160.0 970.5,160.0 971.6,160.0 972.7,160.0 973.8,160.0 974.9,160.0 976.0,160.0 977.1,160.0 978.2,160.0 979.3,160.0 980.3,160.0 981.4,160.0 982.5,160.0 983.6,160.0 984.7,160.0 985.8,160.0 986.9,160.0 988.0,160.0 989.1,160.0 990.1,160.0 991.2,160.0 992.3,160.0 993.4,160.0 994.5,160.0 995.6,160.0 996.7,160.0 997.8,160.0 998.9,160.0 999.9,160.0 1001.0,160.0 1002.1,160.0 1003.2,160.0 1004.3,160.0 1005.4,160.0 1006.5,160.0 1007.6,160.0 1008.7,160.0 1009.7,160.0 1010.8,160.0 1011.9,160.0 1013.0,160.0 1014.1,160.0 1015.2,160.0 1016.3,160.0 1017.4,160.0 1018.5,160.0 1019.5,160.0 1020.6,160.0 1021.7,160.0 1022.8,160.0 1023.9,160.0 1025.0,122.5 1026.1,81.2 1027.2,78.0 1028.3,78.7 1029.3,79.1 1030.4,79.5 1031.5,79.8 1032.6,80.1 1033.7,80.6 1034.8,81.0 1035.9,81.5 1037.0,81.9 1038.1,82.1 1039.2,82.2 1040.2,82.2 1041.3,82.2 1042.4,82.2 1043.5,82.1 1044.6,82.0 1045.7,81.9 1046.8,82.0 1047.9,82.2 1049.0,82.9 1050.0,83.8 1051.1,83.0 1052.2,82.1 1053.3,81.2 1054.4,80.3 1055.5,80.1 1056.6,79.9 1057.7,80.2 1058.8,80.6 1059.8,80.9 1060.9,81.3 1062.0,81.9 1063.1,82.6 1064.2,83.2 1065.3,83.8 1066.4,85.0 1067.5,86.2 1068.6,88.4 1069.6,90.7 1070.7,122.1 1071.8,156.6 1072.9,160.0 1074.0,160.0 1075.1,160.0 1076.2,160.0 1077.3,160.0 1078.4,160.0 1079.4,136.0 1080.5,109.4 1081.6,108.0 1082.7,109.4 1083.8,112.2 1084.9,115.2 1086.0,117.0 1087.1,118.7 1088.2,119.3 1089.2,119.9 1090.3,120.6 1091.4,121.3 1092.5,121.8 1093.6,122.3 1094.7,122.5 1095.8,122.7 1096.9,122.7 1098.0,122.7 1099.1,123.0 1100.1,123.2 1101.2,123.3 1102.3,123.5 1103.4,123.6 1104.5,123.7 1105.6,123.7 1106.7,123.8 1107.8,123.8 1108.9,123.8 1109.9,123.9 1111.0,123.9 1112.1,124.1 1113.2,124.2 1114.3,124.4 1115.4,124.6 1116.5,124.7 1117.6,124.8 1118.7,126.5 1119.7,128.5 1120.8,127.0 1121.9,125.0 1123.0,124.9 1124.1,124.9 1125.2,125.6 1126.3,126.4 1127.4,141.5 1128.5,158.3 1129.5,160.0 1130.6,160.0 1131.7,160.0 1132.8,160.0 1133.9,160.0 1135.0,160.0 1136.1,160.0 1137.2,160.0 1138.3,134.8 1139.3,106.6 1140.4,103.3 1141.5,103.0 1142.6,103.2 1143.7,103.5 1144.8,103.4 1145.9,103.3 1147.0,101.2 1148.1,99.0 1149.1,98.3 1150.2,97.8 1151.3,97.6 1152.4,97.4 1153.5,97.5 1154.6,97.7 1155.7,98.3 1156.8,98.9 1157.9,99.7 1159.0,100.4 1160.0,101.3 1161.1,102.2 1162.2,102.7 1163.3,103.3 1164.4,103.8 1165.5,104.4 1166.6,105.0 1167.7,105.7 1168.8,106.2 1169.8,106.6 1170.9,106.9 1172.0,107.0 1173.1,107.6 1174.2,108.3 1175.3,108.7 1176.4,109.2 1177.5,109.2 1178.6,109.2 1179.6,131.8 1180.7,157.2 1181.8,160.0 1182.9,160.0 1184.0,160.0" fill="none" stroke="#2f6f8f" stroke-width="1.3"/>
<text x="30" y="216" font-family="Arial" font-size="13" fill="#21313a">Intensity</text>
<polyline points="96.0,278.0 97.1,278.0 98.2,278.0 99.3,278.0 100.4,278.0 101.4,278.0 102.5,278.0 103.6,278.0 104.7,278.0 105.8,278.0 106.9,278.0 108.0,278.0 109.1,278.0 110.2,278.0 111.2,278.0 112.3,278.0 113.4,278.0 114.5,278.0 115.6,278.0 116.7,278.0 117.8,278.0 118.9,278.0 120.0,278.0 121.0,278.0 122.1,278.0 123.2,278.0 124.3,278.0 125.4,278.0 126.5,278.0 127.6,278.0 128.7,278.0 129.8,278.0 130.9,278.0 131.9,278.0 133.0,278.0 134.1,278.0 135.2,278.0 136.3,278.0 137.4,278.0 138.5,278.0 139.6,278.0 140.7,278.0 141.7,278.0 142.8,278.0 143.9,278.0 145.0,278.0 146.1,278.0 147.2,278.0 148.3,278.0 149.4,278.0 150.5,278.0 151.5,278.0 152.6,278.0 153.7,278.0 154.8,278.0 155.9,278.0 157.0,278.0 158.1,278.0 159.2,278.0 160.3,278.0 161.3,278.0 162.4,278.0 163.5,278.0 164.6,246.9 165.7,215.6 166.8,213.5 167.9,211.7 169.0,210.4 170.1,209.1 171.1,208.2 172.2,207.3 173.3,206.7 174.4,206.1 175.5,205.6 176.6,205.1 177.7,204.6 178.8,204.2 179.9,203.5 180.9,202.8 182.0,201.7 183.1,200.5 184.2,199.7 185.3,198.9 186.4,198.3 187.5,197.8 188.6,197.5 189.7,197.1 190.8,197.0 191.8,196.8 192.9,196.8 194.0,196.7 195.1,196.6 196.2,196.6 197.3,196.6 198.4,196.5 199.5,196.6 200.6,196.6 201.6,196.7 202.7,196.7 203.8,196.8 204.9,196.9 206.0,197.0 207.1,197.1 208.2,197.1 209.3,197.2 210.4,197.3 211.4,197.4 212.5,197.5 213.6,197.5 214.7,197.6 215.8,197.7 216.9,197.7 218.0,197.8 219.1,197.9 220.2,198.0 221.2,198.0 222.3,198.0 223.4,198.1 224.5,198.2 225.6,198.3 226.7,198.5 227.8,198.6 228.9,198.8 230.0,198.9 231.0,199.0 232.1,199.3 233.2,199.6 234.3,200.1 235.4,200.5 236.5,201.1 237.6,201.7 238.7,202.2 239.8,202.7 240.8,202.8 241.9,203.0 243.0,203.1 244.1,203.2 245.2,203.5 246.3,203.7 247.4,203.7 248.5,203.6 249.6,203.7 250.7,203.9 251.7,204.0 252.8,204.2 253.9,204.1 255.0,203.9 256.1,204.0 257.2,204.1 258.3,204.1 259.4,204.1 260.5,204.0 261.5,203.9 262.6,203.9 263.7,203.8 264.8,203.7 265.9,203.6 267.0,203.3 268.1,203.0 269.2,202.3 270.3,201.6 271.3,201.0 272.4,200.4 273.5,200.1 274.6,199.7 275.7,199.4 276.8,199.1 277.9,198.8 279.0,198.6 280.1,198.4 281.1,198.2 282.2,198.0 283.3,197.9 284.4,197.9 285.5,197.8 286.6,197.9 287.7,198.0 288.8,198.3 289.9,198.6 290.9,199.2 292.0,199.7 293.1,200.5 294.2,201.2 295.3,201.7 296.4,202.2 297.5,202.5 298.6,202.7 299.7,202.8 300.7,202.9 301.8,202.7 302.9,202.4 304.0,202.1 305.1,201.8 306.2,201.5 307.3,201.3 308.4,200.9 309.5,200.6 310.6,200.2 311.6,199.8 312.7,199.6 313.8,199.3 314.9,199.2 316.0,199.0 317.1,198.9 318.2,198.9 319.3,198.8 320.4,198.8 321.4,198.9 322.5,199.0 323.6,199.2 324.7,199.4 325.8,199.6 326.9,199.8 328.0,199.9 329.1,200.0 330.2,200.0 331.2,199.9 332.3,199.9 333.4,199.9 334.5,200.0 335.6,200.0 336.7,200.1 337.8,200.2 338.9,200.5 340.0,200.7 341.0,200.8 342.1,200.9 343.2,200.6 344.3,200.2 345.4,199.8 346.5,199.4 347.6,199.2 348.7,199.0 349.8,199.0 350.8,199.0 351.9,199.0 353.0,199.1 354.1,199.1 355.2,199.1 356.3,199.1 357.4,199.1 358.5,199.2 359.6,199.2 360.6,199.2 361.7,199.3 362.8,199.4 363.9,199.5 365.0,199.7 366.1,199.8 367.2,200.0 368.3,200.2 369.4,200.3 370.5,200.5 371.5,200.6 372.6,200.8 373.7,201.0 374.8,201.1 375.9,201.4 377.0,201.6 378.1,201.7 379.2,201.9 380.3,201.9 381.3,202.0 382.4,202.1 383.5,202.2 384.6,202.3 385.7,202.4 386.8,202.5 387.9,202.6 389.0,202.5 390.1,202.5 391.1,202.5 392.2,202.5 393.3,202.5 394.4,202.4 395.5,202.5 396.6,202.5 397.7,202.5 398.8,202.5 399.9,202.5 400.9,202.4 402.0,202.3 403.1,202.2 404.2,202.1 405.3,202.0 406.4,201.9 407.5,201.8 408.6,201.7 409.7,201.7 410.7,201.6 411.8,201.5 412.9,201.4 414.0,201.3 415.1,201.3 416.2,201.2 417.3,201.3 418.4,201.4 419.5,201.6 420.5,201.9 421.6,202.4 422.7,202.8 423.8,203.4 424.9,204.0 426.0,204.0 427.1,204.1 428.2,203.3 429.3,202.5 430.4,202.1 431.4,201.7 432.5,201.6 433.6,201.5 434.7,201.4 435.8,201.3 436.9,200.8 438.0,200.3 439.1,199.8 440.2,199.3 441.2,199.0 442.3,198.8 443.4,198.6 444.5,198.5 445.6,198.5 446.7,198.4 447.8,198.4 448.9,198.4 450.0,198.4 451.0,198.5 452.1,198.5 453.2,198.6 454.3,198.7 455.4,198.8 456.5,198.9 457.6,198.9 458.7,199.0 459.8,199.0 460.8,199.1 461.9,199.2 463.0,199.2 464.1,199.3 465.2,199.3 466.3,199.4 467.4,199.5 468.5,199.7 469.6,199.9 470.6,200.1 471.7,200.6 472.8,201.0 473.9,201.7 475.0,202.4 476.1,203.0 477.2,203.7 478.3,203.5 479.4,203.3 480.4,203.0 481.5,202.7 482.6,202.3 483.7,201.9 484.8,201.1 485.9,200.3 487.0,199.8 488.1,199.3 489.2,199.0 490.3,198.7 491.3,198.6 492.4,198.5 493.5,198.4 494.6,198.4 495.7,198.4 496.8,198.3 497.9,198.3 499.0,198.3 500.1,198.4 501.1,198.4 502.2,198.4 503.3,198.4 504.4,198.4 505.5,198.5 506.6,198.6 507.7,198.6 508.8,198.7 509.9,198.8 510.9,198.9 512.0,199.0 513.1,199.2 514.2,199.3 515.3,199.4 516.4,199.4 517.5,199.5 518.6,199.5 519.7,199.6 520.7,199.6 521.8,199.6 522.9,199.7 524.0,199.7 525.1,199.8 526.2,199.9 527.3,199.9 528.4,200.0 529.5,200.2 530.5,200.3 531.6,200.5 532.7,200.7 533.8,200.9 534.9,201.1 536.0,201.3 537.1,201.6 538.2,201.9 539.3,202.3 540.3,202.7 541.4,203.2 542.5,203.7 543.6,204.4 544.7,205.1 545.8,206.1 546.9,207.1 548.0,208.2 549.1,209.4 550.2,209.6 551.2,209.8 552.3,209.9 553.4,210.0 554.5,210.0 555.6,210.1 556.7,210.2 557.8,210.3 558.9,210.3 560.0,210.4 561.0,210.6 562.1,210.9 563.2,211.1 564.3,211.3 565.4,211.3 566.5,211.1 567.6,211.1 568.7,211.2 569.8,211.4 570.8,211.7 571.9,212.1 573.0,212.6 574.1,213.1 575.2,213.6 576.3,214.5 577.4,215.5 578.5,217.2 579.6,219.0 580.6,218.9 581.7,218.8 582.8,217.0 583.9,215.0 585.0,213.7 586.1,212.4 587.2,211.7 588.3,211.0 589.4,210.9 590.4,210.8 591.5,210.9 592.6,211.1 593.7,211.1 594.8,211.2 595.9,211.1 597.0,211.0 598.1,210.9 599.2,210.8 600.2,210.9 601.3,211.0 602.4,211.2 603.5,211.5 604.6,211.8 605.7,212.1 606.8,211.8 607.9,211.4 609.0,211.0 610.1,210.6 611.1,210.6 612.2,210.5 613.3,210.2 614.4,209.8 615.5,209.1 616.6,208.5 617.7,207.6 618.8,206.6 619.9,206.0 620.9,205.4 622.0,205.2 623.1,204.9 624.2,204.7 625.3,204.5 626.4,204.3 627.5,204.0 628.6,203.8 629.7,203.5 630.7,203.3 631.8,203.1 632.9,203.0 634.0,202.8 635.1,202.7 636.2,202.6 637.3,202.6 638.4,202.6 639.5,202.5 640.5,202.4 641.6,202.3 642.7,202.3 643.8,202.3 644.9,202.2 646.0,201.7 647.1,201.1 648.2,200.2 649.3,199.3 650.3,198.6 651.4,197.9 652.5,197.4 653.6,197.0 654.7,196.8 655.8,196.5 656.9,196.4 658.0,196.3 659.1,196.2 660.1,196.2 661.2,196.2 662.3,196.2 663.4,196.2 664.5,196.1 665.6,196.1 666.7,196.1 667.8,196.1 668.9,196.2 669.9,196.2 671.0,196.2 672.1,196.1 673.2,196.1 674.3,196.2 675.4,196.2 676.5,196.2 677.6,196.2 678.7,196.3 679.8,196.3 680.8,196.3 681.9,196.3 683.0,196.3 684.1,196.2 685.2,196.2 686.3,196.2 687.4,196.2 688.5,196.3 689.6,196.3 690.6,196.4 691.7,196.4 692.8,196.5 693.9,196.4 695.0,196.4 696.1,196.4 697.2,196.3 698.3,196.3 699.4,196.2 700.4,196.2 701.5,196.2 702.6,196.2 703.7,196.2 704.8,196.2 705.9,196.3 707.0,196.3 708.1,196.3 709.2,196.3 710.2,196.4 711.3,196.4 712.4,196.4 713.5,196.4 714.6,196.4 715.7,196.4 716.8,196.4 717.9,196.5 719.0,196.6 720.0,196.7 721.1,196.9 722.2,197.0 723.3,197.1 724.4,197.1 725.5,197.2 726.6,197.2 727.7,197.3 728.8,197.3 729.8,197.4 730.9,197.5 732.0,197.5 733.1,197.6 734.2,197.7 735.3,197.7 736.4,197.8 737.5,197.8 738.6,197.9 739.7,198.0 740.7,198.1 741.8,198.1 742.9,198.2 744.0,198.2 745.1,198.2 746.2,198.2 747.3,198.3 748.4,198.3 749.5,198.3 750.5,198.3 751.6,198.3 752.7,198.3 753.8,198.3 754.9,198.4 756.0,198.4 757.1,198.5 758.2,198.5 759.3,198.6 760.3,198.6 761.4,198.6 762.5,198.7 763.6,198.7 764.7,198.7 765.8,198.7 766.9,198.7 768.0,198.7 769.1,198.7 770.1,198.7 771.2,198.8 772.3,198.9 773.4,199.1 774.5,199.3 775.6,199.5 776.7,199.8 777.8,200.2 778.9,200.7 779.9,201.2 781.0,201.7 782.1,202.1 783.2,202.4 784.3,202.6 785.4,202.8 786.5,203.0 787.6,203.2 788.7,203.5 789.7,203.5 790.8,203.5 791.9,203.6 793.0,203.6 794.1,203.6 795.2,203.6 796.3,203.5 797.4,203.4 798.5,203.5 799.6,203.5 800.6,203.6 801.7,203.7 802.8,203.6 803.9,203.4 805.0,202.7 806.1,202.0 807.2,200.8 808.3,199.5 809.4,198.6 810.4,197.7 811.5,197.2 812.6,196.6 813.7,196.4 814.8,196.2 815.9,196.1 817.0,196.0 818.1,196.0 819.2,196.0 820.2,196.0 821.3,196.0 822.4,196.1 823.5,196.1 824.6,196.1 825.7,196.1 826.8,196.1 827.9,196.2 829.0,196.2 830.0,196.2 831.1,196.3 832.2,196.3 833.3,196.4 834.4,196.6 835.5,196.7 836.6,196.8 837.7,196.9 838.8,197.0 839.8,197.0 840.9,197.0 842.0,197.0 843.1,197.0 844.2,197.0 845.3,197.0 846.4,197.0 847.5,197.0 848.6,197.0 849.6,197.0 850.7,197.1 851.8,197.1 852.9,197.1 854.0,197.1 855.1,197.2 856.2,197.3 857.3,197.3 858.4,197.4 859.5,197.6 860.5,197.7 861.6,197.9 862.7,198.2 863.8,198.5 864.9,198.9 866.0,199.3 867.1,199.8 868.2,199.7 869.3,199.5 870.3,198.8 871.4,198.0 872.5,197.5 873.6,197.0 874.7,196.8 875.8,196.6 876.9,196.6 878.0,196.5 879.1,196.6 880.1,196.7 881.2,196.8 882.3,197.0 883.4,197.1 884.5,197.2 885.6,197.3 886.7,197.4 887.8,197.5 888.9,197.5 889.9,197.6 891.0,197.7 892.1,197.8 893.2,197.9 894.3,198.0 895.4,198.0 896.5,198.1 897.6,198.2 898.7,198.3 899.7,198.4 900.8,198.4 901.9,198.5 903.0,198.6 904.1,198.6 905.2,198.6 906.3,198.6 907.4,198.7 908.5,198.7 909.5,198.7 910.6,198.7 911.7,198.7 912.8,198.7 913.9,198.7 915.0,198.6 916.1,198.7 917.2,198.7 918.3,198.7 919.4,198.7 920.4,198.7 921.5,198.7 922.6,198.8 923.7,198.8 924.8,198.9 925.9,199.0 927.0,199.3 928.1,199.6 929.2,200.0 930.2,200.4 931.3,200.8 932.4,201.3 933.5,201.7 934.6,202.0 935.7,202.5 936.8,203.0 937.9,203.4 939.0,203.8 940.0,203.4 941.1,203.0 942.2,202.0 943.3,201.0 944.4,200.2 945.5,199.4 946.6,198.9 947.7,198.4 948.8,198.0 949.8,197.7 950.9,197.4 952.0,197.2 953.1,197.0 954.2,196.9 955.3,196.8 956.4,196.6 957.5,196.6 958.6,196.5 959.6,196.5 960.7,196.5 961.8,196.5 962.9,196.5 964.0,196.5 965.1,196.5 966.2,196.6 967.3,196.6 968.4,196.7 969.4,196.7 970.5,196.8 971.6,196.8 972.7,196.8 973.8,196.9 974.9,196.9 976.0,197.0 977.1,197.0 978.2,197.1 979.3,197.1 980.3,197.2 981.4,197.3 982.5,197.4 983.6,197.4 984.7,197.5 985.8,197.7 986.9,197.8 988.0,198.0 989.1,198.2 990.1,198.6 991.2,198.9 992.3,199.3 993.4,199.7 994.5,199.9 995.6,200.1 996.7,200.3 997.8,200.5 998.9,200.6 999.9,200.6 1001.0,200.7 1002.1,200.7 1003.2,200.7 1004.3,200.7 1005.4,200.7 1006.5,200.7 1007.6,200.7 1008.7,200.7 1009.7,200.7 1010.8,200.7 1011.9,200.8 1013.0,200.9 1014.1,201.0 1015.2,201.0 1016.3,201.0 1017.4,201.0 1018.5,200.8 1019.5,200.6 1020.6,199.9 1021.7,199.1 1022.8,198.6 1023.9,198.0 1025.0,197.7 1026.1,197.5 1027.2,197.3 1028.3,197.1 1029.3,197.0 1030.4,196.8 1031.5,196.8 1032.6,196.8 1033.7,196.8 1034.8,196.8 1035.9,196.8 1037.0,196.8 1038.1,196.9 1039.2,196.9 1040.2,197.0 1041.3,197.0 1042.4,197.0 1043.5,197.1 1044.6,197.1 1045.7,197.2 1046.8,197.2 1047.9,197.3 1049.0,197.3 1050.0,197.4 1051.1,197.4 1052.2,197.5 1053.3,197.6 1054.4,197.6 1055.5,197.7 1056.6,197.7 1057.7,197.8 1058.8,197.9 1059.8,197.9 1060.9,198.0 1062.0,198.1 1063.1,198.2 1064.2,198.3 1065.3,198.4 1066.4,198.5 1067.5,198.6 1068.6,198.7 1069.6,198.8 1070.7,198.8 1071.8,198.9 1072.9,199.0 1074.0,199.1 1075.1,199.1 1076.2,199.2 1077.3,199.2 1078.4,199.2 1079.4,199.2 1080.5,199.3 1081.6,199.3 1082.7,199.3 1083.8,199.3 1084.9,199.3 1086.0,199.4 1087.1,199.4 1088.2,199.5 1089.2,199.6 1090.3,199.6 1091.4,199.7 1092.5,199.8 1093.6,199.8 1094.7,199.9 1095.8,199.9 1096.9,199.9 1098.0,199.9 1099.1,199.9 1100.1,199.9 1101.2,199.9 1102.3,199.9 1103.4,199.9 1104.5,199.9 1105.6,200.0 1106.7,200.0 1107.8,200.0 1108.9,200.0 1109.9,199.9 1111.0,199.9 1112.1,200.0 1113.2,200.0 1114.3,200.1 1115.4,200.1 1116.5,200.2 1117.6,200.2 1118.7,200.3 1119.7,200.3 1120.8,200.3 1121.9,200.3 1123.0,200.4 1124.1,200.4 1125.2,200.4 1126.3,200.5 1127.4,200.5 1128.5,200.5 1129.5,200.5 1130.6,200.5 1131.7,200.5 1132.8,200.5 1133.9,200.4 1135.0,200.4 1136.1,200.4 1137.2,200.4 1138.3,200.5 1139.3,200.5 1140.4,200.5 1141.5,200.6 1142.6,200.7 1143.7,200.8 1144.8,201.2 1145.9,201.5 1147.0,202.1 1148.1,202.6 1149.1,203.2 1150.2,203.9 1151.3,204.8 1152.4,205.8 1153.5,207.2 1154.6,208.5 1155.7,208.8 1156.8,208.9 1157.9,209.4 1159.0,210.0 1160.0,210.2 1161.1,210.4 1162.2,211.0 1163.3,211.5 1164.4,212.5 1165.5,213.5 1166.6,214.1 1167.7,214.6 1168.8,216.6 1169.8,218.7 1170.9,220.1 1172.0,221.4 1173.1,246.7 1174.2,274.9 1175.3,278.0 1176.4,278.0 1177.5,278.0 1178.6,278.0 1179.6,251.5 1180.7,221.8 1181.8,217.2 1182.9,215.8 1184.0,214.5" fill="none" stroke="#b05f3c" stroke-width="1.3"/>
</svg>