<svg xmlns="http://www.w3.org/2000/svg" width="1220" height="320" viewBox="0 0 1220 320">
<rect width="100%" height="100%" fill="#fbfaf7"/>
<text x="30" y="36" font-family="Arial" font-size="22" font-weight="700" fill="#1f2d36">single_female_acoustic.csv</text>
<text x="30" y="60" font-family="Arial" font-size="13" fill="#53636d">First 4000 rows with f0/intensity values.</text>
<text x="30" y="98" font-family="Arial" font-size="13" fill="#21313a">F0</text>
<polyline points="96.0,160.0 97.1,160.0 98.2,160.0 99.3,160.0 100.4,160.0 101.4,119.0 102.5,78.0 103.6,79.3 104.7,80.7 105.8,81.3 106.9,81.9 108.0,82.1 109.1,82.4 110.2,82.3 111.2,82.1 112.3,82.1 113.4,82.1 114.5,82.1 115.6,82.1 116.7,82.1 117.8,82.1 118.9,82.1 120.0,82.1 121.0,82.3 122.1,82.4 123.2,82.5 124.3,82.6 125.4,82.7 126.5,82.7 127.6,82.7 128.7,82.8 129.8,82.8 130.9,82.9 131.9,83.2 133.0,83.5 134.1,84.0 135.2,84.4 136.3,84.7 137.4,85.0 138.5,85.2 139.6,85.5 140.7,86.3 141.7,87.2 142.8,88.4 143.9,89.6 145.0,90.9 146.1,92.2 147.2,94.5 148.3,96.8 149.4,99.0 150.5,101.2 151.5,103.4 152.6,105.6 153.7,107.7 154.8,109.9 155.9,111.9 157.0,113.9 158.1,114.7 159.2,115.6 160.3,116.8 161.3,118.0 162.4,119.0 163.5,119.9 164.6,120.8 165.7,121.6 166.8,121.8 167.9,122.1 169.0,122.2 170.1,122.3 171.1,122.6 172.2,122.8 173.3,122.7 174.4,122.7 175.5,141.2 176.6,159.9 177.7,160.0 178.8,160.0 179.9,160.0 180.9,160.0 182.0,160.0 183.1,160.0 184.2,160.0 185.3,160.0 186.4,160.0 187.5,160.0 188.6,160.0 189.7,160.0 190.8,160.0 191.8,160.0 192.9,160.0 194.0,160.0 195.1,160.0 196.2,160.0 197.3,160.0 198.4,160.0 199.5,138.3 200.6,116.3 201.6,116.4 202.7,116.7 203.8,117.9 204.9,119.1 206.0,120.0 207.1,120.9 208.2,121.0 209.3,121.1 210.4,120.9 211.4,120.7 212.5,119.9 213.6,119.0 214.7,118.4 215.8,117.7 216.9,116.7 218.0,115.8 219.1,114.7 220.2,113.7 221.2,113.1 222.3,112.5 223.4,112.5 224.5,112.6 225.6,112.8 226.7,113.1 227.8,113.2 228.9,113.4 230.0,136.4 231.0,159.7 232.1,160.0 233.2,160.0 234.3,160.0 235.4,160.0 236.5,160.0 237.6,160.0 238.7,160.0 239.8,160.0 240.8,160.0 241.9,160.0 243.0,160.0 244.1,160.0 245.2,160.0 246.3,160.0 247.4,160.0 248.5,160.0 249.6,160.0 250.7,160.0 251.7,160.0 252.8,160.0 253.9,160.0 255.0,160.0 256.1,160.0 257.2,160.0 258.3,149.3 259.4,138.5 260.5,149.0 261.5,159.8 262.6,160.0 263.7,160.0 264.8,134.2 265.9,107.9 267.0,107.8 268.1,108.2 269.2,108.0 270.3,107.8 271.3,107.4 272.4,107.0 273.5,105.5 274.6,104.1 275.7,103.3 276.8,102.6 277.9,102.2 279.0,101.8 280.1,101.4 281.1,101.0 282.2,100.3 283.3,99.5 284.4,99.1 285.5,98.7 286.6,98.0 287.7,97.4 288.8,96.9 289.9,96.4 290.9,96.6 292.0,96.7 293.1,97.4 294.2,98.1 295.3,98.8 296.4,99.4 297.5,100.3 298.6,101.3 299.7,102.5 300.7,103.7 301.8,104.8 302.9,105.8 304.0,107.3 305.1,108.8 306.2,110.7 307.3,112.6 308.4,115.0 309.5,117.5 310.6,118.6 311.6,119.7 312.7,120.5 313.8,121.4 314.9,121.9 316.0,122.4 317.1,123.3 318.2,124.1 319.3,124.5 320.4,125.0 321.4,124.7 322.5,124.5 323.6,123.9 324.7,123.3 325.8,122.8 326.9,122.2 328.0,121.5 329.1,120.8 330.2,120.2 331.2,119.5 332.3,118.4 333.4,117.3 334.5,117.2 335.6,117.1 336.7,116.7 337.8,116.3 338.9,115.1 340.0,113.9 341.0,112.1 342.1,110.3 343.2,108.8 344.3,107.3 345.4,106.1 346.5,104.9 347.6,104.3 348.7,103.7 349.8,103.5 350.8,103.2 351.9,103.1 353.0,103.1 354.1,103.1 355.2,103.2 356.3,103.2 357.4,103.3 358.5,103.6 359.6,103.9 360.6,104.2 361.7,104.6 362.8,104.8 363.9,104.9 365.0,105.1 366.1,105.2 367.2,105.4 368.3,105.6 369.4,105.8 370.5,105.9 371.5,106.4 372.6,106.9 373.7,132.8 374.8,159.3 375.9,160.0 377.0,160.0 378.1,160.0 379.2,160.0 380.3,160.0 381.3,160.0 382.4,160.0 383.5,160.0 384.6,160.0 385.7,160.0 386.8,160.0 387.9,160.0 389.0,160.0 390.1,160.0 391.1,160.0 392.2,160.0 393.3,160.0 394.4,160.0 395.5,160.0 396.6,160.0 397.7,160.0 398.8,160.0 399.9,160.0 400.9,160.0 402.0,160.0 403.1,160.0 404.2,127.0 405.3,93.0 406.4,93.0 407.5,94.0 408.6,94.7 409.7,95.4 410.7,96.0 411.8,96.6 412.9,97.1 414.0,97.6 415.1,98.2 416.2,98.8 417.3,99.4 418.4,100.0 419.5,100.8 420.5,101.7 421.6,102.5 422.7,103.4 423.8,104.5 424.9,105.7 426.0,106.6 427.1,107.4 428.2,108.9 429.3,110.5 430.4,112.2 431.4,114.0 432.5,136.2 433.6,159.2 434.7,160.0 435.8,160.0 436.9,160.0 438.0,160.0 439.1,140.4 440.2,120.1 441.2,120.1 442.3,120.8 443.4,121.9 444.5,123.1 445.6,123.7 446.7,124.3 447.8,124.5 448.9,124.6 450.0,125.0 451.0,125.5 452.1,125.6 453.2,125.8 454.3,125.7 455.4,125.6 456.5,124.8 457.6,123.9 458.7,120.5 459.8,117.0 460.8,116.9 461.9,116.9 463.0,137.7 464.1,159.2 465.2,160.0 466.3,160.0 467.4,160.0 468.5,160.0 469.6,160.0 470.6,160.0 471.7,160.0 472.8,160.0 473.9,160.0 475.0,160.0 476.1,160.0 477.2,160.0 478.3,160.0 479.4,160.0 480.4,160.0 481.5,160.0 482.6,160.0 483.7,160.0 484.8,160.0 485.9,160.0 487.0,144.9 488.1,129.2 489.2,128.5 490.3,128.5 491.3,128.7 492.4,128.8 493.5,129.2 494.6,129.5 495.7,129.4 496.8,129.3 497.9,129.5 499.0,129.7 500.1,129.7 501.1,129.7 502.2,129.9 503.3,130.0 504.4,130.0 505.5,130.0 506.6,129.8 507.7,129.6 508.8,144.2 509.9,159.4 510.9,160.0 512.0,160.0 513.1,160.0 514.2,160.0 515.3,160.0 516.4,160.0 517.5,160.0 518.6,160.0 519.7,160.0 520.7,160.0 521.8,160.0 522.9,160.0 524.0,160.0 525.1,160.0 526.2,160.0 527.3,160.0 528.4,160.0 529.5,160.0 530.5,160.0 531.6,160.0 532.7,160.0 533.8,160.0 534.9,160.0 536.0,160.0 537.1,160.0 538.2,160.0 539.3,144.4 540.3,128.2 541.4,127.9 542.5,128.3 543.6,128.5 544.7,128.7 545.8,128.9 546.9,129.0 548.0,129.6 549.1,130.1 550.2,130.5 551.2,130.8 552.3,131.3 553.4,131.7 554.5,132.1 555.6,132.4 556.7,133.1 557.8,133.9 558.9,134.9 560.0,136.0 561.0,136.8 562.1,137.6 563.2,137.7 564.3,137.8 565.4,148.4 566.5,159.5 567.6,160.0 568.7,160.0 569.8,160.0 570.8,160.0 571.9,160.0 573.0,160.0 574.1,160.0 575.2,160.0 576.3,160.0 577.4,160.0 578.5,160.0 579.6,160.0 580.6,160.0 581.7,160.0 582.8,160.0 583.9,160.0 585.0,160.0 586.1,160.0 587.2,160.0 588.3,160.0 589.4,160.0 590.4,160.0 591.5,160.0 592.6,160.0 593.7,160.0 594.8,160.0 595.9,160.0 597.0,160.0 598.1,160.0 599.2,160.0 600.2,160.0 601.3,160.0 602.4,160.0 603.5,160.0 604.6,160.0 605.7,160.0 606.8,160.0 607.9,160.0 609.0,160.0 610.1,160.0 611.1,160.0 612.2,160.0 613.3,160.0 614.4,160.0 615.5,160.0 616.6,160.0 617.7,160.0 618.8,160.0 619.9,160.0 620.9,160.0 622.0,160.0 623.1,160.0 624.2,160.0 625.3,160.0 626.4,160.0 627.5,160.0 628.6,160.0 629.7,160.0 630.7,160.0 631.8,160.0 632.9,160.0 634.0,160.0 635.1,121.5 636.2,81.0 637.3,79.5 638.4,80.2 639.5,80.4 640.5,80.7 641.6,81.0 642.7,81.4 643.8,81.8 644.9,82.2 646.0,82.8 647.1,83.3 648.2,83.7 649.3,84.1 650.3,84.4 651.4,84.7 652.5,84.9 653.6,85.2 654.7,85.4 655.8,85.7 656.9,85.7 658.0,85.8 659.1,85.9 660.1,86.1 661.2,86.4 662.3,86.8 663.4,87.1 664.5,87.3 665.6,87.6 666.7,87.9 667.8,88.1 668.9,88.3 669.9,88.6 671.0,88.9 672.1,89.0 673.2,89.0 674.3,89.0 675.4,89.0 676.5,88.8 677.6,88.6 678.7,88.5 679.8,88.3 680.8,88.3 681.9,88.4 683.0,88.3 684.1,88.3 685.2,88.4 686.3,88.5 687.4,88.7 688.5,88.8 689.6,89.0 690.6,89.3 691.7,89.8 692.8,90.4 693.9,91.6 695.0,92.9 696.1,93.9 697.2,95.0 698.3,125.6 699.4,158.1 700.4,160.0 701.5,160.0 702.6,160.0 703.7,160.0 704.8,160.0 705.9,160.0 707.0,160.0 708.1,160.0 709.2,160.0 710.2,160.0 711.3,160.0 712.4,160.0 713.5,130.4 714.6,98.9 715.7,97.9 716.8,98.8 717.9,99.6 719.0,100.3 720.0,105.0 721.1,109.9 722.2,112.0 723.3,113.9 724.4,114.9 725.5,115.8 726.6,116.9 727.7,118.0 728.8,119.0 729.8,120.0 730.9,120.9 732.0,121.7 733.1,122.7 734.2,123.8 735.3,124.6 736.4,125.4 737.5,125.5 738.6,125.5 739.7,125.7 740.7,125.8 741.8,126.0 742.9,126.2 744.0,126.5 745.1,126.9 746.2,127.2 747.3,127.6 748.4,127.8 749.5,128.0 750.5,127.8 751.6,127.7 752.7,127.6 753.8,127.6 754.9,127.5 756.0,127.5 757.1,127.5 758.2,127.6 759.3,127.5 760.3,127.4 761.4,127.0 762.5,126.7 763.6,126.2 764.7,125.7 765.8,125.6 766.9,125.5 768.0,125.8 769.1,126.2 770.1,126.4 771.2,126.6 772.3,126.6 773.4,126.7 774.5,126.7 775.6,126.8 776.7,126.7 777.8,126.6 778.9,126.5 779.9,126.4 781.0,126.1 782.1,125.9 783.2,125.5 784.3,125.1 785.4,124.8 786.5,124.4 787.6,124.3 788.7,124.1 789.7,123.4 790.8,122.7 791.9,121.5 793.0,120.2 794.1,118.8 795.2,117.4 796.3,115.5 797.4,113.6 798.5,111.9 799.6,110.2 800.6,108.9 801.7,107.7 802.8,106.6 803.9,105.5 805.0,104.6 806.1,103.6 807.2,103.0 808.3,102.5 809.4,101.7 810.4,101.0 811.5,128.4 812.6,157.9 813.7,160.0 814.8,160.0 815.9,149.9 817.0,139.0 818.1,138.2 819.2,138.2 820.2,148.3 821.3,159.2 822.4,160.0 823.5,160.0 824.6,160.0 825.7,160.0 826.8,160.0 827.9,160.0 829.0,160.0 830.0,160.0 831.1,160.0 832.2,160.0 833.3,160.0 834.4,160.0 835.5,160.0 836.6,160.0 837.7,160.0 838.8,160.0 839.8,160.0 840.9,160.0 842.0,136.3 843.1,110.7 844.2,110.8 845.3,112.9 846.4,114.2 847.5,115.4 848.6,116.7 849.6,118.0 850.7,119.6 851.8,121.3 852.9,122.1 854.0,122.9 855.1,123.8 856.2,124.7 857.3,126.1 858.4,127.4 859.5,128.3 860.5,129.0 861.6,130.5 862.7,132.1 863.8,132.6 864.9,133.1 866.0,133.3 867.1,133.5 868.2,133.8 869.3,134.1 870.3,134.8 871.4,135.6 872.5,135.8 873.6,136.0 874.7,135.6 875.8,135.1 876.9,133.5 878.0,131.9 879.1,130.5 880.1,129.1 881.2,128.2 882.3,127.3 883.4,127.1 884.5,126.9 885.6,126.9 886.7,126.8 887.8,127.0 888.9,127.1 889.9,127.4 891.0,127.7 892.1,127.8 893.2,128.0 894.3,127.9 895.4,127.9 896.5,127.7 897.6,127.5 898.7,127.5 899.7,127.4 900.8,127.2 901.9,127.0 903.0,126.9 904.1,126.8 905.2,126.6 906.3,126.4 907.4,126.1 908.5,125.9 909.5,125.3 910.6,124.7 911.7,123.8 912.8,123.0 913.9,121.6 915.0,120.2 916.1,119.2 917.2,118.2 918.3,117.5 919.4,116.9 920.4,116.0 921.5,115.2 922.6,114.2 923.7,113.1 924.8,112.6 925.9,112.1 927.0,134.1 928.1,158.1 929.2,160.0 930.2,160.0 931.3,160.0 932.4,160.0 933.5,160.0 934.6,160.0 935.7,160.0 936.8,160.0 937.9,160.0 939.0,160.0 940.0,160.0 941.1,160.0 942.2,160.0 943.3,160.0 944.4,160.0 945.5,160.0 946.6,160.0 947.7,160.0 948.8,160.0 949.8,160.0 950.9,160.0 952.0,160.0 953.1,160.0 954.2,160.0 955.3,143.1 956.4,124.7 957.5,124.2 958.6,125.3 959.6,125.9 960.7,126.5 961.8,126.9 962.9,127.3 964.0,127.4 965.1,127.4 966.2,127.5 967.3,127.5 968.4,127.5 969.4,127.4 970.5,127.2 971.6,126.9 972.7,126.9 973.8,127.0 974.9,142.1 976.0,158.6 977.1,160.0 978.2,160.0 979.3,151.4 980.3,142.0 981.4,141.2 982.5,141.1 983.6,149.8 984.7,159.2 985.8,160.0 986.9,160.0 988.0,160.0 989.1,160.0 990.1,160.0 991.2,160.0 992.3,160.0 993.4,160.0 994.5,160.0 995.6,160.0 996.7,160.0 997.8,160.0 998.9,132.6 999.9,102.6 1001.0,99.8 1002.1,99.6 1003.2,99.4 1004.3,99.2 1005.4,99.2 1006.5,99.2 1007.6,99.1 1008.7,99.0 1009.7,98.9 1010.8,98.8 1011.9,98.8 1013.0,98.8 1014.1,98.6 1015.2,98.4 1016.3,98.2 1017.4,97.9 1018.5,97.9 1019.5,97.9 1020.6,97.7 1021.7,97.5 1022.8,97.4 1023.9,97.2 1025.0,97.3 1026.1,97.4 1027.2,97.5 1028.3,97.6 1029.3,97.6 1030.4,97.7 1031.5,98.0 1032.6,98.3 1033.7,98.8 1034.8,99.4 1035.9,100.3 1037.0,101.3 1038.1,102.1 1039.2,103.0 1040.2,103.9 1041.3,104.9 1042.4,106.3 1043.5,107.8 1044.6,109.1 1045.7,110.5 1046.8,111.9 1047.9,113.2 1049.0,115.3 1050.0,117.4 1051.1,118.6 1052.2,119.7 1053.3,120.5 1054.4,121.3 1055.5,121.7 1056.6,122.0 1057.7,122.1 1058.8,122.1 1059.8,122.0 1060.9,121.9 1062.0,121.7 1063.1,121.5 1064.2,121.1 1065.3,120.7 1066.4,120.3 1067.5,119.9 1068.6,119.6 1069.6,119.4 1070.7,119.2 1071.8,119.0 1072.9,118.8 1074.0,118.6 1075.1,118.3 1076.2,118.1 1077.3,117.7 1078.4,117.4 1079.4,115.7 1080.5,113.9 1081.6,113.4 1082.7,113.1 1083.8,113.1 1084.9,113.3 1086.0,113.5 1087.1,113.9 1088.2,114.1 1089.2,114.4 1090.3,115.0 1091.4,115.6 1092.5,116.0 1093.6,116.5 1094.7,116.8 1095.8,117.2 1096.9,117.4 1098.0,117.6 1099.1,117.7 1100.1,117.8 1101.2,117.9 1102.3,118.1 1103.4,118.8 1104.5,119.6 1105.6,120.4 1106.7,121.2 1107.8,122.0 1108.9,122.8 1109.9,123.2 1111.0,123.5 1112.1,124.0 1113.2,124.5 1114.3,125.0 1115.4,125.4 1116.5,125.9 1117.6,126.4 1118.7,127.3 1119.7,128.2 1120.8,128.8 1121.9,129.3 1123.0,129.6 1124.1,129.9 1125.2,130.0 1126.3,130.1 1127.4,130.1 1128.5,130.1 1129.5,130.0 1130.6,130.0 1131.7,129.7 1132.8,129.5 1133.9,129.1 1135.0,128.8 1136.1,128.4 1137.2,128.0 1138.3,127.5 1139.3,127.0 1140.4,126.6 1141.5,126.1 1142.6,125.8 1143.7,125.6 1144.8,125.4 1145.9,125.2 1147.0,124.8 1148.1,124.4 1149.1,124.3 1150.2,124.3 1151.3,124.6 1152.4,125.1 1153.5,140.8 1154.6,158.2 1155.7,160.0 1156.8,160.0 1157.9,160.0 1159.0,160.0 1160.0,160.0 1161.1,160.0 1162.2,160.0 1163.3,160.0 1164.4,160.0 1165.5,160.0 1166.6,151.6 1167.7,142.1 1168.8,149.6 1169.8,159.0 1170.9,160.0 1172.0,160.0 1173.1,137.1 1174.2,111.5 1175.3,109.5 1176.4,110.3 1177.5,110.7 1178.6,111.0 1179.6,111.6 1180.7,112.2 1181.8,112.8 1182.9,113.3 1184.0,113.6" fill="none" stroke="#2f6f8f" stroke-width="1.3"/>
<text x="30" y="216" font-family="Arial" font-size="13" fill="#21313a">Intensity</text>
<polyline points="96.0,205.9 97.1,204.2 98.2,202.5 99.3,201.4 100.4,200.2 101.4,199.5 102.5,198.8 103.6,198.4 104.7,198.0 105.8,197.8 106.9,197.6 108.0,197.5 109.1,197.4 110.2,197.4 111.2,197.4 112.3,197.4 113.4,197.4 114.5,197.4 115.6,197.4 116.7,197.4 117.8,197.4 118.9,197.3 120.0,197.3 121.0,197.3 122.1,197.2 123.2,197.1 124.3,197.0 125.4,196.8 126.5,196.7 127.6,196.6 128.7,196.6 129.8,196.5 130.9,196.5 131.9,196.5 133.0,196.4 134.1,196.4 135.2,196.4 136.3,196.4 137.4,196.3 138.5,196.3 139.6,196.3 140.7,196.2 141.7,196.2 142.8,196.2 143.9,196.2 145.0,196.2 146.1,196.2 147.2,196.2 148.3,196.2 149.4,196.2 150.5,196.2 151.5,196.2 152.6,196.2 153.7,196.3 154.8,196.3 155.9,196.4 157.0,196.4 158.1,196.4 159.2,196.5 160.3,196.5 161.3,196.6 162.4,196.6 163.5,196.7 164.6,196.8 165.7,197.0 166.8,197.1 167.9,197.2 169.0,197.2 170.1,197.3 171.1,197.3 172.2,197.4 173.3,197.5 174.4,197.6 175.5,197.8 176.6,197.9 177.7,198.0 178.8,198.2 179.9,198.3 180.9,198.4 182.0,198.4 183.1,198.5 184.2,198.6 185.3,198.7 186.4,198.8 187.5,199.0 188.6,199.2 189.7,199.5 190.8,199.8 191.8,200.1 192.9,200.4 194.0,200.7 195.1,200.7 196.2,200.8 197.3,200.8 198.4,200.9 199.5,200.9 200.6,200.9 201.6,201.0 202.7,201.1 203.8,201.1 204.9,201.2 206.0,201.2 207.1,201.2 208.2,201.2 209.3,201.3 210.4,201.3 211.4,201.3 212.5,201.4 213.6,201.4 214.7,201.4 215.8,201.4 216.9,201.4 218.0,201.4 219.1,201.4 220.2,201.5 221.2,201.2 222.3,200.9 223.4,200.5 224.5,200.1 225.6,199.8 226.7,199.6 227.8,199.5 228.9,199.3 230.0,199.2 231.0,199.1 232.1,199.0 233.2,198.9 234.3,198.9 235.4,198.8 236.5,198.7 237.6,198.7 238.7,198.6 239.8,198.5 240.8,198.5 241.9,198.4 243.0,198.3 244.1,198.3 245.2,198.2 246.3,198.2 247.4,198.2 248.5,198.2 249.6,198.2 250.7,198.3 251.7,198.4 252.8,198.5 253.9,198.7 255.0,199.0 256.1,199.4 257.2,199.7 258.3,200.3 259.4,200.9 260.5,201.7 261.5,202.4 262.6,203.4 263.7,204.5 264.8,205.2 265.9,206.0 267.0,206.4 268.1,206.8 269.2,207.0 270.3,207.2 271.3,207.3 272.4,207.3 273.5,206.8 274.6,206.3 275.7,205.2 276.8,204.1 277.9,203.2 279.0,202.3 280.1,201.7 281.1,201.1 282.2,200.7 283.3,200.4 284.4,200.1 285.5,199.9 286.6,199.7 287.7,199.6 288.8,199.5 289.9,199.5 290.9,199.5 292.0,199.5 293.1,199.6 294.2,199.8 295.3,199.9 296.4,200.0 297.5,200.1 298.6,200.2 299.7,200.4 300.7,200.5 301.8,200.3 302.9,200.1 304.0,199.7 305.1,199.3 306.2,199.1 307.3,198.8 308.4,198.7 309.5,198.6 310.6,198.6 311.6,198.6 312.7,198.5 313.8,198.5 314.9,198.4 316.0,198.4 317.1,198.3 318.2,198.3 319.3,198.3 320.4,198.3 321.4,198.2 322.5,198.2 323.6,198.2 324.7,198.2 325.8,198.2 326.9,198.2 328.0,198.2 329.1,198.2 330.2,198.2 331.2,198.2 332.3,198.1 333.4,198.1 334.5,198.1 335.6,198.1 336.7,198.2 337.8,198.2 338.9,198.3 340.0,198.4 341.0,198.4 342.1,198.5 343.2,198.5 344.3,198.5 345.4,198.5 346.5,198.4 347.6,198.4 348.7,198.4 349.8,198.4 350.8,198.4 351.9,198.5 353.0,198.5 354.1,198.6 355.2,198.7 356.3,198.7 357.4,198.8 358.5,198.8 359.6,198.9 360.6,198.8 361.7,198.8 362.8,198.8 363.9,198.8 365.0,198.7 366.1,198.7 367.2,198.7 368.3,198.7 369.4,198.7 370.5,198.8 371.5,198.8 372.6,198.8 373.7,198.9 374.8,198.9 375.9,198.9 377.0,199.0 378.1,199.0 379.2,199.0 380.3,199.0 381.3,199.1 382.4,199.1 383.5,199.2 384.6,199.2 385.7,199.3 386.8,199.3 387.9,199.3 389.0,199.3 390.1,199.4 391.1,199.4 392.2,199.5 393.3,199.5 394.4,199.5 395.5,199.5 396.6,199.4 397.7,199.3 398.8,199.2 399.9,199.1 400.9,199.0 402.0,198.9 403.1,198.8 404.2,198.8 405.3,198.7 406.4,198.7 407.5,198.6 408.6,198.6 409.7,198.6 410.7,198.6 411.8,198.6 412.9,198.6 414.0,198.6 415.1,198.6 416.2,198.6 417.3,198.6 418.4,198.6 419.5,198.6 420.5,198.7 421.6,198.7 422.7,198.7 423.8,198.8 424.9,198.8 426.0,198.8 427.1,198.8 428.2,198.9 429.3,198.9 430.4,198.9 431.4,199.0 432.5,199.1 433.6,199.2 434.7,199.4 435.8,199.5 436.9,199.8 438.0,200.1 439.1,200.5 440.2,201.0 441.2,201.0 442.3,201.1 443.4,200.9 444.5,200.7 445.6,200.6 446.7,200.6 447.8,200.5 448.9,200.5 450.0,200.3 451.0,200.2 452.1,200.1 453.2,200.1 454.3,200.1 455.4,200.1 456.5,200.1 457.6,200.2 458.7,200.2 459.8,200.3 460.8,200.3 461.9,200.3 463.0,200.4 464.1,200.5 465.2,200.7 466.3,200.9 467.4,201.2 468.5,201.5 469.6,201.9 470.6,202.3 471.7,202.7 472.8,203.1 473.9,203.0 475.0,202.8 476.1,201.9 477.2,201.0 478.3,200.3 479.4,199.7 480.4,199.4 481.5,199.1 482.6,199.0 483.7,198.9 484.8,198.9 485.9,198.9 487.0,198.9 488.1,198.9 489.2,198.9 490.3,198.9 491.3,198.9 492.4,199.0 493.5,199.0 494.6,199.0 495.7,199.0 496.8,199.0 497.9,199.0 499.0,199.0 500.1,199.0 501.1,199.1 502.2,199.1 503.3,199.2 504.4,199.3 505.5,199.4 506.6,199.6 507.7,199.8 508.8,200.1 509.9,200.4 510.9,200.9 512.0,201.4 513.1,201.9 514.2,202.5 515.3,203.0 516.4,203.6 517.5,203.5 518.6,203.5 519.7,202.8 520.7,202.1 521.8,201.5 522.9,200.9 524.0,200.5 525.1,200.1 526.2,199.9 527.3,199.8 528.4,199.7 529.5,199.6 530.5,199.6 531.6,199.6 532.7,199.6 533.8,199.6 534.9,199.6 536.0,199.7 537.1,199.8 538.2,199.9 539.3,200.0 540.3,200.2 541.4,200.4 542.5,200.6 543.6,200.7 544.7,200.7 545.8,200.7 546.9,200.6 548.0,200.6 549.1,200.5 550.2,200.4 551.2,200.3 552.3,200.2 553.4,200.1 554.5,200.0 555.6,199.9 556.7,199.9 557.8,199.8 558.9,199.8 560.0,199.8 561.0,199.8 562.1,199.8 563.2,199.8 564.3,199.8 565.4,199.8 566.5,199.9 567.6,200.0 568.7,200.0 569.8,200.0 570.8,200.0 571.9,200.1 573.0,200.2 574.1,200.5 575.2,200.7 576.3,201.2 577.4,201.7 578.5,201.8 579.6,202.0 580.6,201.6 581.7,201.1 582.8,200.6 583.9,200.2 585.0,200.0 586.1,199.8 587.2,199.7 588.3,199.6 589.4,199.6 590.4,199.6 591.5,199.7 592.6,199.7 593.7,199.8 594.8,199.9 595.9,200.1 597.0,200.3 598.1,200.4 599.2,200.5 600.2,200.6 601.3,200.7 602.4,200.8 603.5,200.9 604.6,201.0 605.7,201.2 606.8,201.5 607.9,201.7 609.0,202.1 610.1,202.6 611.1,202.9 612.2,203.3 613.3,203.5 614.4,203.6 615.5,203.7 616.6,203.7 617.7,203.7 618.8,203.7 619.9,203.7 620.9,203.7 622.0,203.7 623.1,203.7 624.2,203.7 625.3,203.7 626.4,203.8 627.5,203.8 628.6,203.8 629.7,203.8 630.7,203.9 631.8,204.0 632.9,204.1 634.0,204.2 635.1,204.4 636.2,204.5 637.3,204.5 638.4,204.6 639.5,203.7 640.5,202.7 641.6,201.7 642.7,200.7 643.8,200.1 644.9,199.5 646.0,199.2 647.1,198.8 648.2,198.7 649.3,198.5 650.3,198.4 651.4,198.3 652.5,198.3 653.6,198.3 654.7,198.3 655.8,198.3 656.9,198.3 658.0,198.3 659.1,198.4 660.1,198.4 661.2,198.5 662.3,198.5 663.4,198.6 664.5,198.6 665.6,198.6 666.7,198.7 667.8,198.7 668.9,198.8 669.9,198.9 671.0,199.0 672.1,199.2 673.2,199.4 674.3,199.6 675.4,199.8 676.5,200.0 677.6,200.2 678.7,200.4 679.8,200.7 680.8,201.2 681.9,201.7 683.0,202.5 684.1,203.3 685.2,204.4 686.3,205.5 687.4,206.1 688.5,206.8 689.6,207.2 690.6,207.6 691.7,207.8 692.8,208.0 693.9,208.1 695.0,208.3 696.1,208.5 697.2,208.7 698.3,209.0 699.4,209.3 700.4,209.4 701.5,209.5 702.6,209.5 703.7,209.5 704.8,209.5 705.9,209.5 707.0,209.6 708.1,209.6 709.2,209.8 710.2,210.0 711.3,210.1 712.4,210.1 713.5,210.0 714.6,209.9 715.7,209.9 716.8,209.9 717.9,210.1 719.0,210.4 720.0,211.1 721.1,211.9 722.2,213.2 723.3,214.5 724.4,215.3 725.5,216.0 726.6,245.1 727.7,276.1 728.8,278.0 729.8,278.0 730.9,278.0 732.0,278.0 733.1,247.9 734.2,215.7 735.3,213.3 736.4,212.9 737.5,212.0 738.6,211.2 739.7,210.5 740.7,209.9 741.8,209.7 742.9,209.6 744.0,209.8 745.1,210.0 746.2,209.9 747.3,209.8 748.4,209.4 749.5,209.0 750.5,208.0 751.6,206.9 752.7,205.8 753.8,204.8 754.9,203.9 756.0,203.1 757.1,202.5 758.2,201.9 759.3,201.6 760.3,201.3 761.4,201.4 762.5,201.4 763.6,201.5 764.7,201.6 765.8,200.9 766.9,200.0 768.0,199.2 769.1,198.4 770.1,197.9 771.2,197.5 772.3,197.3 773.4,197.1 774.5,197.0 775.6,197.0 776.7,197.0 777.8,197.0 778.9,197.0 779.9,197.1 781.0,197.1 782.1,197.1 783.2,197.2 784.3,197.2 785.4,197.2 786.5,197.2 787.6,197.2 788.7,197.2 789.7,197.2 790.8,197.2 791.9,197.1 793.0,197.1 794.1,197.1 795.2,197.1 796.3,197.1 797.4,197.1 798.5,197.0 799.6,197.0 800.6,196.9 801.7,196.9 802.8,196.8 803.9,196.8 805.0,196.8 806.1,196.7 807.2,196.7 808.3,196.7 809.4,196.7 810.4,196.7 811.5,196.7 812.6,196.7 813.7,196.7 814.8,196.7 815.9,196.6 817.0,196.6 818.1,196.6 819.2,196.6 820.2,196.5 821.3,196.5 822.4,196.5 823.5,196.4 824.6,196.4 825.7,196.4 826.8,196.3 827.9,196.2 829.0,196.2 830.0,196.1 831.1,196.1 832.2,196.0 833.3,196.0 834.4,196.0 835.5,196.0 836.6,196.1 837.7,196.2 838.8,196.3 839.8,196.6 840.9,196.9 842.0,197.4 843.1,197.9 844.2,198.6 845.3,199.3 846.4,200.2 847.5,201.1 848.6,201.8 849.6,202.5 850.7,203.1 851.8,203.7 852.9,204.3 854.0,205.0 855.1,205.7 856.2,206.4 857.3,206.7 858.4,206.9 859.5,206.6 860.5,206.3 861.6,205.1 862.7,203.8 863.8,202.6 864.9,201.4 866.0,200.4 867.1,199.5 868.2,199.0 869.3,198.5 870.3,198.3 871.4,198.1 872.5,198.1 873.6,198.1 874.7,198.0 875.8,198.0 876.9,197.9 878.0,197.8 879.1,197.8 880.1,197.7 881.2,197.7 882.3,197.7 883.4,197.7 884.5,197.7 885.6,197.7 886.7,197.7 887.8,197.7 888.9,197.7 889.9,197.7 891.0,197.7 892.1,197.6 893.2,197.6 894.3,197.6 895.4,197.5 896.5,197.5 897.6,197.4 898.7,197.5 899.7,197.5 900.8,197.5 901.9,197.5 903.0,197.6 904.1,197.6 905.2,197.6 906.3,197.7 907.4,197.7 908.5,197.8 909.5,197.8 910.6,197.8 911.7,197.9 912.8,197.9 913.9,197.9 915.0,197.9 916.1,197.9 917.2,197.9 918.3,197.9 919.4,197.9 920.4,197.9 921.5,197.9 922.6,197.9 923.7,197.9 924.8,197.9 925.9,197.8 927.0,197.8 928.1,197.7 929.2,197.8 930.2,197.8 931.3,197.9 932.4,198.0 933.5,198.2 934.6,198.3 935.7,198.4 936.8,198.4 937.9,198.5 939.0,198.5 940.0,198.6 941.1,198.6 942.2,198.6 943.3,198.7 944.4,198.7 945.5,198.7 946.6,198.7 947.7,198.7 948.8,198.7 949.8,198.7 950.9,198.7 952.0,198.7 953.1,198.7 954.2,198.7 955.3,198.7 956.4,198.7 957.5,198.6 958.6,198.6 959.6,198.6 960.7,198.6 961.8,198.6 962.9,198.5 964.0,198.5 965.1,198.5 966.2,198.5 967.3,198.4 968.4,198.4 969.4,198.4 970.5,198.3 971.6,198.3 972.7,198.3 973.8,198.3 974.9,198.2 976.0,198.2 977.1,198.2 978.2,198.2 979.3,198.3 980.3,198.4 981.4,198.6 982.5,198.9 983.6,199.2 984.7,199.5 985.8,199.8 986.9,200.2 988.0,200.3 989.1,200.4 990.1,200.4 991.2,200.3 992.3,200.2 993.4,200.2 994.5,200.2 995.6,200.2 996.7,200.2 997.8,200.2 998.9,200.2 999.9,200.2 1001.0,200.3 1002.1,200.3 1003.2,200.3 1004.3,200.3 1005.4,200.2 1006.5,200.2 1007.6,200.2 1008.7,200.2 1009.7,200.2 1010.8,200.3 1011.9,200.4 1013.0,200.5 1014.1,200.6 1015.2,200.8 1016.3,201.0 1017.4,201.3 1018.5,201.5 1019.5,201.8 1020.6,202.1 1021.7,202.4 1022.8,202.4 1023.9,202.4 1025.0,201.6 1026.1,200.7 1027.2,200.0 1028.3,199.4 1029.3,199.0 1030.4,198.6 1031.5,198.4 1032.6,198.3 1033.7,198.2 1034.8,198.1 1035.9,198.0 1037.0,198.0 1038.1,197.9 1039.2,197.9 1040.2,197.9 1041.3,197.9 1042.4,198.0 1043.5,198.1 1044.6,198.2 1045.7,198.3 1046.8,198.5 1047.9,198.7 1049.0,198.9 1050.0,199.0 1051.1,199.2 1052.2,199.3 1053.3,199.4 1054.4,199.5 1055.5,199.5 1056.6,199.6 1057.7,199.7 1058.8,199.8 1059.8,199.9 1060.9,200.1 1062.0,200.2 1063.1,200.3 1064.2,200.3 1065.3,200.4 1066.4,200.5 1067.5,200.6 1068.6,200.5 1069.6,200.4 1070.7,200.2 1071.8,200.0 1072.9,199.8 1074.0,199.6 1075.1,199.4 1076.2,199.2 1077.3,199.1 1078.4,199.0 1079.4,199.0 1080.5,198.9 1081.6,198.9 1082.7,198.8 1083.8,198.8 1084.9,198.7 1086.0,198.7 1087.1,198.7 1088.2,198.7 1089.2,198.7 1090.3,198.7 1091.4,198.7 1092.5,198.7 1093.6,198.7 1094.7,198.7 1095.8,198.8 1096.9,198.8 1098.0,198.8 1099.1,198.8 1100.1,198.8 1101.2,198.8 1102.3,198.8 1103.4,198.8 1104.5,198.8 1105.6,198.8 1106.7,198.8 1107.8,198.8 1108.9,198.7 1109.9,198.7 1111.0,198.6 1112.1,198.5 1113.2,198.4 1114.3,198.4 1115.4,198.3 1116.5,198.3 1117.6,198.3 1118.7,198.3 1119.7,198.3 1120.8,198.3 1121.9,198.3 1123.0,198.3 1124.1,198.3 1125.2,198.3 1126.3,198.4 1127.4,198.6 1128.5,198.7 1129.5,199.0 1130.6,199.3 1131.7,199.5 1132.8,199.6 1133.9,199.6 1135.0,199.6 1136.1,199.6 1137.2,199.5 1138.3,199.5 1139.3,199.5 1140.4,199.5 1141.5,199.4 1142.6,199.4 1143.7,199.3 1144.8,199.3 1145.9,199.2 1147.0,199.2 1148.1,199.2 1149.1,199.2 1150.2,199.2 1151.3,199.2 1152.4,199.2 1153.5,199.2 1154.6,199.2 1155.7,199.2 1156.8,199.3 1157.9,199.5 1159.0,199.6 1160.0,199.9 1161.1,200.3 1162.2,200.4 1163.3,200.5 1164.4,200.1 1165.5,199.6 1166.6,199.3 1167.7,199.0 1168.8,198.8 1169.8,198.7 1170.9,198.6 1172.0,198.6 1173.1,198.6 1174.2,198.7 1175.3,198.8 1176.4,198.9 1177.5,199.0 1178.6,199.1 1179.6,199.2 1180.7,199.2 1181.8,199.4 1182.9,199.5 1184.0,199.8" fill="none" stroke="#b05f3c" stroke-width="1.3"/>
</svg>