<svg width="1600" height="980" viewBox="0 0 1600 980" fill="none" xmlns="http://www.w3.org/2000/svg">
  <style>
    text, tspan {
      font-family: "PingFang SC", "Hiragino Sans GB", "Microsoft YaHei", "Noto Sans CJK SC", Arial, sans-serif !important;
    }
  </style>
  <rect width="1600" height="980" fill="#F6F2EA"/>

  <text x="68" y="68" font-size="34" font-weight="700" fill="#1F2A2E">Moreira EEG Dataset: Subject Tree</text>
  <text x="68" y="102" font-size="18" fill="#4D5A5F">2019 P subjects and 2021 S subjects in one structure view</text>

  <rect x="520" y="132" width="560" height="116" rx="24" fill="#DDE7F6" stroke="#3C5772" stroke-width="2"/>
  <text x="560" y="178" font-size="30" font-weight="700" fill="#23384A">Moreira EEG dataset</text>
  <text x="560" y="212" font-size="20" fill="#23384A">same acquisition family / 64-channel cap / 2000 Hz</text>

  <rect x="86" y="330" width="618" height="492" rx="24" fill="#FFFFFF" stroke="#59686D" stroke-width="2"/>
  <text x="122" y="382" font-size="30" font-weight="700" fill="#223238">2019 group</text>
  <text x="122" y="418" font-size="20" fill="#223238">P subjects: P01-P08</text>
  <text x="312" y="418" font-size="20" fill="#223238">session: ses-01</text>

  <rect x="122" y="456" width="256" height="138" rx="18" fill="#F8FBFC" stroke="#6E8892" stroke-width="1.8"/>
  <text x="146" y="488" font-size="22" font-weight="700" fill="#223238">Task block</text>
  <text x="146" y="522" font-size="19" fill="#223238">task: phonemes</text>
  <text x="146" y="552" font-size="19" fill="#223238">recordings / subject: 1</text>
  <text x="146" y="582" font-size="18" fill="#4D5A5F">1 subject -> 1 task set</text>

  <rect x="408" y="456" width="260" height="138" rx="18" fill="#FBF8F1" stroke="#8B6C23" stroke-width="1.8"/>
  <text x="432" y="488" font-size="22" font-weight="700" fill="#223238">Raw set / recording</text>
  <text x="432" y="520" font-size="18" fill="#223238">eeg.edf</text>
  <text x="432" y="548" font-size="18" fill="#223238">events.tsv</text>
  <text x="432" y="576" font-size="18" fill="#223238">channels.tsv / eeg.json</text>

  <rect x="122" y="628" width="546" height="154" rx="18" fill="#FFFDF9" stroke="#6E8892" stroke-width="1.8"/>
  <text x="146" y="662" font-size="22" font-weight="700" fill="#223238">Export / recording</text>
  <text x="146" y="696" font-size="18" fill="#223238">full_eeg.h5</text>
  <text x="312" y="696" font-size="18" fill="#223238">manifest.json</text>
  <text x="492" y="696" font-size="18" fill="#223238">channel_stats.csv</text>
  <text x="146" y="728" font-size="18" fill="#223238">overview.png</text>
  <text x="312" y="728" font-size="18" fill="#223238">psd.png</text>
  <text x="146" y="758" font-size="18" fill="#4D5A5F">2019 keeps phonemes only</text>

  <rect x="896" y="330" width="618" height="492" rx="24" fill="#FFFFFF" stroke="#59686D" stroke-width="2"/>
  <text x="932" y="382" font-size="30" font-weight="700" fill="#223238">2021 group</text>
  <text x="932" y="418" font-size="20" fill="#223238">S subjects: S01-S16</text>
  <text x="1122" y="418" font-size="20" fill="#223238">session: ses-02</text>

  <rect x="932" y="456" width="270" height="170" rx="18" fill="#F8FBFC" stroke="#6E8892" stroke-width="1.8"/>
  <text x="956" y="488" font-size="22" font-weight="700" fill="#223238">Task block</text>
  <text x="956" y="520" font-size="18" fill="#223238">phonemes</text>
  <text x="956" y="548" font-size="18" fill="#223238">single-phoneme</text>
  <text x="956" y="576" font-size="18" fill="#223238">Words</text>
  <text x="956" y="606" font-size="18" fill="#4D5A5F">recordings / subject: 3</text>

  <rect x="1230" y="456" width="248" height="170" rx="18" fill="#FBF8F1" stroke="#8B6C23" stroke-width="1.8"/>
  <text x="1254" y="488" font-size="22" font-weight="700" fill="#223238">Raw set / recording</text>
  <text x="1254" y="520" font-size="18" fill="#223238">eeg.edf</text>
  <text x="1254" y="548" font-size="18" fill="#223238">events.tsv</text>
  <text x="1254" y="576" font-size="18" fill="#223238">channels.tsv / eeg.json</text>
  <text x="1254" y="606" font-size="18" fill="#4D5A5F">3 task file sets / subject</text>

  <rect x="932" y="660" width="546" height="122" rx="18" fill="#FFFDF9" stroke="#6E8892" stroke-width="1.8"/>
  <text x="956" y="694" font-size="22" font-weight="700" fill="#223238">Export / recording</text>
  <text x="956" y="726" font-size="18" fill="#223238">full_eeg.h5</text>
  <text x="1122" y="726" font-size="18" fill="#223238">manifest.json</text>
  <text x="1302" y="726" font-size="18" fill="#223238">channel_stats.csv</text>
  <text x="956" y="756" font-size="18" fill="#223238">overview.png / psd.png</text>

  <rect x="586" y="864" width="432" height="78" rx="18" fill="#E9EFEF" stroke="#6E8892" stroke-width="1.8"/>
  <text x="618" y="898" font-size="20" font-weight="700" fill="#223238">Shared export traits</text>
  <text x="618" y="926" font-size="18" fill="#223238">61 EEG channels in export / unit: uV / same export layout</text>

  <path d="M800 248 V302" stroke="#55656B" stroke-width="4" marker-end="url(#arrow)"/>
  <path d="M800 302 H395 V330" stroke="#55656B" stroke-width="4" fill="none" marker-end="url(#arrow)"/>
  <path d="M800 302 H1205 V330" stroke="#55656B" stroke-width="4" fill="none" marker-end="url(#arrow)"/>

  <path d="M378 525 H408" stroke="#55656B" stroke-width="3.5" marker-end="url(#arrow)"/>
  <path d="M538 594 V628" stroke="#55656B" stroke-width="3.5" marker-end="url(#arrow)"/>

  <path d="M1202 541 H1230" stroke="#55656B" stroke-width="3.5" marker-end="url(#arrow)"/>
  <path d="M1354 626 V660" stroke="#55656B" stroke-width="3.5" marker-end="url(#arrow)"/>

  <defs>
    <marker id="arrow" markerWidth="12" markerHeight="12" refX="10" refY="6" orient="auto">
      <path d="M0 0 L12 6 L0 12 Z" fill="#55656B"/>
    </marker>
  </defs>
</svg>
